<?xml version="1.0" encoding="UTF-8" standalone="no"?>
<!-- Created with Inkscape (http://www.inkscape.org/) -->

<svg
   width="150mm"
   height="150mm"
   viewBox="0 0 150 150"
   version="1.1"
   id="svg20832"
   inkscape:version="1.1 (c68e22c387, 2021-05-23)"
   sodipodi:docname="gradient-dark-heavysnow.svg"
   xmlns:inkscape="http://www.inkscape.org/namespaces/inkscape"
   xmlns:sodipodi="http://sodipodi.sourceforge.net/DTD/sodipodi-0.dtd"
   xmlns:xlink="http://www.w3.org/1999/xlink"
   xmlns="http://www.w3.org/2000/svg"
   xmlns:svg="http://www.w3.org/2000/svg">
  <sodipodi:namedview
     id="namedview20834"
     pagecolor="#ffffff"
     bordercolor="#666666"
     borderopacity="1.0"
     inkscape:pageshadow="2"
     inkscape:pageopacity="0.0"
     inkscape:pagecheckerboard="0"
     inkscape:document-units="mm"
     showgrid="false"
     fit-margin-top="5"
     lock-margins="true"
     fit-margin-left="5"
     fit-margin-right="5"
     fit-margin-bottom="5"
     width="150mm"
     inkscape:zoom="0.60221661"
     inkscape:cx="-67.251549"
     inkscape:cy="134.5031"
     inkscape:window-width="1920"
     inkscape:window-height="1047"
     inkscape:window-x="-9"
     inkscape:window-y="-9"
     inkscape:window-maximized="1"
     inkscape:current-layer="layer1" />
  <defs
     id="defs20829">
    <linearGradient
       inkscape:collect="always"
       xlink:href="#linearGradient31769"
       id="linearGradient8037"
       gradientUnits="userSpaceOnUse"
       gradientTransform="rotate(44.146004,255.15605,741.96887)"
       x1="624.58923"
       y1="218.59637"
       x2="655.10242"
       y2="218.59637" />
    <linearGradient
       inkscape:collect="always"
       id="linearGradient31769">
      <stop
         style="stop-color:#47c3ff;stop-opacity:1"
         offset="0"
         id="stop31765" />
      <stop
         style="stop-color:#62e8ff;stop-opacity:1"
         offset="0.49385983"
         id="stop31771" />
      <stop
         style="stop-color:#a3f7ff;stop-opacity:1"
         offset="1"
         id="stop31767" />
    </linearGradient>
    <linearGradient
       inkscape:collect="always"
       xlink:href="#linearGradient31769"
       id="linearGradient8043"
       gradientUnits="userSpaceOnUse"
       gradientTransform="rotate(44.146004,245.85592,795.78956)"
       x1="624.58923"
       y1="218.59637"
       x2="655.10242"
       y2="218.59637" />
    <linearGradient
       inkscape:collect="always"
       xlink:href="#linearGradient31769"
       id="linearGradient8049"
       gradientUnits="userSpaceOnUse"
       gradientTransform="rotate(44.146004,289.76833,818.81236)"
       x1="624.58923"
       y1="218.59637"
       x2="655.10242"
       y2="218.59637" />
    <linearGradient
       inkscape:collect="always"
       xlink:href="#linearGradient31769"
       id="linearGradient8055"
       gradientUnits="userSpaceOnUse"
       gradientTransform="rotate(44.146004,279.96193,867.41465)"
       x1="624.58923"
       y1="218.59637"
       x2="655.10242"
       y2="218.59637" />
    <linearGradient
       inkscape:collect="always"
       xlink:href="#Darkcloud"
       id="linearGradient45341"
       gradientUnits="userSpaceOnUse"
       gradientTransform="matrix(0.26458333,0,0,0.26458333,795.2215,384.17498)"
       x1="286.76205"
       y1="744.73486"
       x2="821.68268"
       y2="744.73486" />
    <linearGradient
       id="Darkcloud"
       inkscape:collect="always">
      <stop
         id="stop1719"
         offset="0"
         style="stop-color:#4d4d4d;stop-opacity:1" />
      <stop
         style="stop-color:#666666;stop-opacity:1"
         offset="0.47494423"
         id="stop1721" />
      <stop
         id="stop1723"
         offset="1"
         style="stop-color:#808080;stop-opacity:1" />
    </linearGradient>
    <linearGradient
       inkscape:collect="always"
       xlink:href="#linearGradient31769"
       id="linearGradient21139"
       gradientUnits="userSpaceOnUse"
       gradientTransform="rotate(44.146004,255.15605,741.96887)"
       x1="624.58923"
       y1="218.59637"
       x2="655.10242"
       y2="218.59637" />
    <linearGradient
       inkscape:collect="always"
       xlink:href="#linearGradient31769"
       id="linearGradient21141"
       gradientUnits="userSpaceOnUse"
       gradientTransform="rotate(44.146004,255.15605,741.96887)"
       x1="624.58923"
       y1="218.59637"
       x2="655.10242"
       y2="218.59637" />
    <linearGradient
       inkscape:collect="always"
       xlink:href="#linearGradient31769"
       id="linearGradient21143"
       gradientUnits="userSpaceOnUse"
       gradientTransform="rotate(44.146004,255.15605,741.96887)"
       x1="624.58923"
       y1="218.59637"
       x2="655.10242"
       y2="218.59637" />
    <linearGradient
       inkscape:collect="always"
       xlink:href="#linearGradient31769"
       id="linearGradient21145"
       gradientUnits="userSpaceOnUse"
       gradientTransform="rotate(44.146004,245.85592,795.78956)"
       x1="624.58923"
       y1="218.59637"
       x2="655.10242"
       y2="218.59637" />
    <linearGradient
       inkscape:collect="always"
       xlink:href="#linearGradient31769"
       id="linearGradient21147"
       gradientUnits="userSpaceOnUse"
       gradientTransform="rotate(44.146004,245.85592,795.78956)"
       x1="624.58923"
       y1="218.59637"
       x2="655.10242"
       y2="218.59637" />
    <linearGradient
       inkscape:collect="always"
       xlink:href="#linearGradient31769"
       id="linearGradient21149"
       gradientUnits="userSpaceOnUse"
       gradientTransform="rotate(44.146004,245.85592,795.78956)"
       x1="624.58923"
       y1="218.59637"
       x2="655.10242"
       y2="218.59637" />
    <linearGradient
       inkscape:collect="always"
       xlink:href="#linearGradient31769"
       id="linearGradient21151"
       gradientUnits="userSpaceOnUse"
       gradientTransform="rotate(44.146004,289.76833,818.81236)"
       x1="624.58923"
       y1="218.59637"
       x2="655.10242"
       y2="218.59637" />
    <linearGradient
       inkscape:collect="always"
       xlink:href="#linearGradient31769"
       id="linearGradient21153"
       gradientUnits="userSpaceOnUse"
       gradientTransform="rotate(44.146004,289.76833,818.81236)"
       x1="624.58923"
       y1="218.59637"
       x2="655.10242"
       y2="218.59637" />
    <linearGradient
       inkscape:collect="always"
       xlink:href="#linearGradient31769"
       id="linearGradient21155"
       gradientUnits="userSpaceOnUse"
       gradientTransform="rotate(44.146004,289.76833,818.81236)"
       x1="624.58923"
       y1="218.59637"
       x2="655.10242"
       y2="218.59637" />
    <linearGradient
       inkscape:collect="always"
       xlink:href="#linearGradient31769"
       id="linearGradient21157"
       gradientUnits="userSpaceOnUse"
       gradientTransform="rotate(44.146004,279.96193,867.41465)"
       x1="624.58923"
       y1="218.59637"
       x2="655.10242"
       y2="218.59637" />
    <linearGradient
       inkscape:collect="always"
       xlink:href="#linearGradient31769"
       id="linearGradient21159"
       gradientUnits="userSpaceOnUse"
       gradientTransform="rotate(44.146004,279.96193,867.41465)"
       x1="624.58923"
       y1="218.59637"
       x2="655.10242"
       y2="218.59637" />
    <linearGradient
       inkscape:collect="always"
       xlink:href="#linearGradient31769"
       id="linearGradient21161"
       gradientUnits="userSpaceOnUse"
       gradientTransform="rotate(44.146004,279.96193,867.41465)"
       x1="624.58923"
       y1="218.59637"
       x2="655.10242"
       y2="218.59637" />
  </defs>
  <g
     inkscape:label="Layer 1"
     inkscape:groupmode="layer"
     id="layer1"
     transform="translate(-104.80673,-112.76233)">
    <g
       id="g46037"
       transform="translate(-762.05295,-423.0143)"
       inkscape:label="Gradient|Dark|Heavysnow">
      <path
         style="fill:none;stroke:url(#linearGradient21139);stroke-width:4.03489;stroke-linecap:round;stroke-linejoin:miter;stroke-miterlimit:4;stroke-dasharray:none;stroke-opacity:1"
         d="m 906.27221,628.45696 -18.32323,19.12066"
         id="path30432-2-5-67-6" />
      <path
         style="fill:none;stroke:url(#linearGradient21141);stroke-width:4.03489;stroke-linecap:round;stroke-linejoin:miter;stroke-miterlimit:4;stroke-dasharray:none;stroke-opacity:1"
         d="M 906.78831,647.34057 887.71608,628.96695"
         id="path30432-9-5-1-91-6" />
      <path
         style="fill:none;stroke:url(#linearGradient21143);stroke-width:4.03489;stroke-linecap:round;stroke-linejoin:miter;stroke-miterlimit:4;stroke-dasharray:none;stroke-opacity:1"
         d="m 911.06042,637.58945 -26.47833,0.48826"
         id="path30432-6-2-4-7-2" />
      <path
         style="fill:none;stroke:url(#linearGradient8037);stroke-width:4.03489;stroke-linecap:round;stroke-linejoin:miter;stroke-miterlimit:4;stroke-dasharray:none;stroke-opacity:1"
         d="m 897.8177,624.738 -0.78384,26.47123"
         id="path30432-4-6-0-9-6" />
      <path
         style="fill:none;stroke:url(#linearGradient21145);stroke-width:4.03489;stroke-linecap:round;stroke-linejoin:miter;stroke-miterlimit:4;stroke-dasharray:none;stroke-opacity:1"
         d="m 941.13108,650.13512 -18.32323,19.12066"
         id="path30432-2-5-1-9-1" />
      <path
         style="fill:none;stroke:url(#linearGradient21147);stroke-width:4.03489;stroke-linecap:round;stroke-linejoin:miter;stroke-miterlimit:4;stroke-dasharray:none;stroke-opacity:1"
         d="M 941.64718,669.01873 922.57494,650.64511"
         id="path30432-9-5-1-97-6-6" />
      <path
         style="fill:none;stroke:url(#linearGradient21149);stroke-width:4.03489;stroke-linecap:round;stroke-linejoin:miter;stroke-miterlimit:4;stroke-dasharray:none;stroke-opacity:1"
         d="m 945.91929,659.26762 -26.47833,0.48825"
         id="path30432-6-2-4-6-2-9" />
      <path
         style="fill:none;stroke:url(#linearGradient8043);stroke-width:4.03489;stroke-linecap:round;stroke-linejoin:miter;stroke-miterlimit:4;stroke-dasharray:none;stroke-opacity:1"
         d="m 932.67657,646.41616 -0.78385,26.47123"
         id="path30432-4-6-0-6-9-9" />
      <path
         style="fill:none;stroke:url(#linearGradient21151);stroke-width:4.03489;stroke-linecap:round;stroke-linejoin:miter;stroke-miterlimit:4;stroke-dasharray:none;stroke-opacity:1"
         d="m 969.56851,626.053 -18.32323,19.12065"
         id="path30432-2-5-6-9-2" />
      <path
         style="fill:none;stroke:url(#linearGradient21153);stroke-width:4.03489;stroke-linecap:round;stroke-linejoin:miter;stroke-miterlimit:4;stroke-dasharray:none;stroke-opacity:1"
         d="M 970.08461,644.93661 951.01237,626.56299"
         id="path30432-9-5-1-2-1-3" />
      <path
         style="fill:none;stroke:url(#linearGradient21155);stroke-width:4.03489;stroke-linecap:round;stroke-linejoin:miter;stroke-miterlimit:4;stroke-dasharray:none;stroke-opacity:1"
         d="m 974.35672,635.18549 -26.47833,0.48826"
         id="path30432-6-2-4-9-1-9" />
      <path
         style="fill:none;stroke:url(#linearGradient8049);stroke-width:4.03489;stroke-linecap:round;stroke-linejoin:miter;stroke-miterlimit:4;stroke-dasharray:none;stroke-opacity:1"
         d="m 961.114,622.33404 -0.78385,26.47123"
         id="path30432-4-6-0-5-3-9" />
      <path
         style="fill:none;stroke:url(#linearGradient21157);stroke-width:4.03489;stroke-linecap:round;stroke-linejoin:miter;stroke-miterlimit:4;stroke-dasharray:none;stroke-opacity:1"
         d="m 1000.6498,646.60992 -18.3232,19.12066"
         id="path30432-2-5-4-8-9" />
      <path
         style="fill:none;stroke:url(#linearGradient21159);stroke-width:4.03489;stroke-linecap:round;stroke-linejoin:miter;stroke-miterlimit:4;stroke-dasharray:none;stroke-opacity:1"
         d="M 1001.1659,665.49353 982.0937,647.11992"
         id="path30432-9-5-1-5-3-9" />
      <path
         style="fill:none;stroke:url(#linearGradient21161);stroke-width:4.03489;stroke-linecap:round;stroke-linejoin:miter;stroke-miterlimit:4;stroke-dasharray:none;stroke-opacity:1"
         d="m 1005.438,655.74242 -26.47829,0.48825"
         id="path30432-6-2-4-8-3-0" />
      <path
         style="fill:none;stroke:url(#linearGradient8055);stroke-width:4.03489;stroke-linecap:round;stroke-linejoin:miter;stroke-miterlimit:4;stroke-dasharray:none;stroke-opacity:1"
         d="m 992.19532,642.89097 -0.78385,26.47122"
         id="path30432-4-6-0-3-3-0" />
      <path
         inkscape:connector-curvature="0"
         id="path884-2-0-3-5-3"
         d="m 937.71925,549.65014 c -1.6813,-0.0164 -3.3462,0.0852 -4.9872,0.31574 -1.5552,0.22252 -3.0699,0.56872 -4.5269,1.0449 -5.6403,1.85278 -9.7463,5.5054 -12.2313,9.18859 -3.7747,5.60684 -3.8489,10.05262 -3.4577,12.43233 -1.787,-1.89276 -4.026,-3.71393 -6.8063,-5.20124 -1.7948,-0.94876 -3.7753,-1.74612 -5.9118,-2.31975 -3.9345,-0.74821 -8.3283,-0.23557 -12.2778,1.84794 -1.6203,0.88687 -3.1028,1.98838 -4.438,3.26131 -1.8969,1.80837 -3.4163,3.88532 -4.5889,6.01306 -3.4426,6.18625 -4.4606,12.79108 -4.3966,18.24591 0.012,2.7182 0.3168,5.20508 1.0186,7.50343 0.8985,2.96912 2.4658,5.17082 4.1103,6.5996 1.8608,1.59781 3.4417,2.06206 4.4369,2.13785 5.1301,1.2341 30.2027,2.12907 60.3504,2.06757 30.091,-0.0614 55.12189,-1.05514 60.31205,-2.30683 0.01,0.0316 0.017,0.0605 0.036,0.0832 -0.027,-0.033 -0.031,-0.0615 -0.014,-0.0884 0.4697,-0.1146 0.7886,-0.23148 0.9142,-0.34986 1.4915,-0.51896 4.2781,-1.92833 4.364,-7.66878 0.01,-1.62011 -0.3033,-3.23043 -0.8144,-4.86276 -1.4096,-4.72918 -4.4926,-10.51477 -10.25466,-14.48593 -1.854,-1.24241 -3.8885,-2.23342 -6.0554,-2.97037 -2.4344,-0.82791 -4.903,-1.29044 -7.27599,-1.48156 -4.9547,-0.40861 -9.6548,0.20226 -13.4473,0.93173 -1.2594,0.23357 -2.4806,0.50477 -3.699,0.91674 0.2779,-1.1817 0.5723,-2.68566 0.877,-4.48294 -0.065,-2.73656 -0.6361,-6.17322 -2.2381,-9.81076 -2.0654,-4.59281 -5.9045,-9.411 -11.7172,-12.48606 -2.7375,-1.4305 -5.6831,-2.39057 -8.7406,-3.05046 -0.6544,-0.14567 -1.3182,-0.27858 -1.9901,-0.3974 -2.1999,-0.38905 -4.3883,-0.6057 -6.55,-0.62683 z m -0.7177,5.25446 c 2.046,0.0236 4.1609,0.24487 6.3432,0.62683 0.5996,0.10495 1.196,0.22038 1.788,0.3447 2.7622,0.60063 5.2799,1.34789 7.5205,2.4536 4.7397,2.30142 8.1938,6.09524 10.2976,9.77873 1.641,2.79912 2.5258,5.59441 3.0158,7.95093 0.014,2.19338 0.087,3.96017 0.2171,5.23585 -2.384,1.1968 -4.068,2.861 -5.115,4.36255 -2.0578,2.95995 -1.8032,5.03046 -1.4882,5.14281 0.4634,0.16533 1.3523,-1.50078 3.515,-3.36257 1.3623,-1.17601 3.3263,-2.40503 5.8255,-2.96468 1.0408,-0.23982 2.1386,-0.34332 3.4793,-0.47181 3.6657,-0.32572 8.0926,-0.63646 12.3089,-0.13899 2.026,0.24384 4.10119,0.6596 6.09049,1.32239 1.7739,0.59097 3.4021,1.35251 4.8556,2.30115 4.55606,2.86539 7.50776,7.60059 9.25826,11.53109 0.5953,1.39556 1.0214,2.51833 1.1875,3.64318 0.5461,3.26136 -0.8335,5.65998 -1.4728,6.93911 -4.4822,-1.26877 -29.93285,-2.19684 -60.62615,-2.13424 -29.5182,0.0602 -54.1789,1.01704 -60.0068,2.23503 -0.7211,-0.57531 -1.8297,-1.45121 -2.9099,-2.9006 -1.0519,-1.38921 -1.9039,-3.24597 -2.3631,-5.71801 -0.3537,-1.93155 -0.3685,-4.00002 -0.2021,-6.47196 0.3702,-4.90818 1.5394,-10.69705 4.5408,-15.75924 1.035,-1.72543 2.2681,-3.3967 3.7078,-4.7966 1.0151,-0.98708 2.1066,-1.81386 3.2763,-2.44018 2.7257,-1.53678 5.9094,-2.03501 8.7364,-1.62936 1.728,0.38108 3.359,0.93947 4.8633,1.62214 5.6516,2.5286 9.3311,6.78115 11.4355,9.85366 2.1505,3.13976 3.0157,5.30365 3.5006,5.17848 0.3899,-0.10065 0.5679,-2.5499 -1.0899,-6.47918 -0.794,-1.88191 -2.0754,-4.15668 -3.9662,-6.4022 0.6048,-1.7989 1.568,-6.47391 5.5966,-11.19261 2.3976,-2.81517 6.0055,-5.51943 10.543,-6.77427 1.1807,-0.32911 2.4261,-0.55948 3.729,-0.70639 1.1778,-0.13643 2.3805,-0.19346 3.6081,-0.17934 z"
         style="fill:none;fill-opacity:1;stroke:url(#linearGradient45341);stroke-width:6;stroke-linecap:round;stroke-linejoin:round;stroke-miterlimit:4;stroke-dasharray:none;stroke-opacity:1" />
    </g>
  </g>
</svg>
