<?xml version="1.0" encoding="UTF-8" standalone="no"?>
<!-- Created with Inkscape (http://www.inkscape.org/) -->

<svg
   width="150mm"
   height="150mm"
   viewBox="0 0 150 150"
   version="1.1"
   id="svg16492"
   inkscape:version="1.1 (c68e22c387, 2021-05-23)"
   sodipodi:docname="gradient-cloud.svg"
   xmlns:inkscape="http://www.inkscape.org/namespaces/inkscape"
   xmlns:sodipodi="http://sodipodi.sourceforge.net/DTD/sodipodi-0.dtd"
   xmlns:xlink="http://www.w3.org/1999/xlink"
   xmlns="http://www.w3.org/2000/svg"
   xmlns:svg="http://www.w3.org/2000/svg">
  <sodipodi:namedview
     id="namedview16494"
     pagecolor="#ffffff"
     bordercolor="#666666"
     borderopacity="1.0"
     inkscape:pageshadow="2"
     inkscape:pageopacity="0.0"
     inkscape:pagecheckerboard="0"
     inkscape:document-units="mm"
     showgrid="false"
     inkscape:zoom="0.60221661"
     inkscape:cx="-113.74645"
     inkscape:cy="308.85897"
     inkscape:window-width="1920"
     inkscape:window-height="1047"
     inkscape:window-x="-9"
     inkscape:window-y="-9"
     inkscape:window-maximized="1"
     inkscape:current-layer="layer1"
     fit-margin-top="5"
     lock-margins="true"
     fit-margin-left="5"
     fit-margin-right="5"
     fit-margin-bottom="5" />
  <defs
     id="defs16489">
    <linearGradient
       inkscape:collect="always"
       xlink:href="#Darkercloud"
       id="linearGradient5862"
       gradientUnits="userSpaceOnUse"
       x1="20.263622"
       y1="112.12571"
       x2="59.116428"
       y2="121.51217"
       gradientTransform="translate(177.84978,33.844289)" />
    <linearGradient
       id="Darkercloud"
       inkscape:collect="always">
      <stop
         id="stop938"
         offset="0"
         style="stop-color:#f9f9f9;stop-opacity:1" />
      <stop
         style="stop-color:#ececec;stop-opacity:1"
         offset="1"
         id="stop940" />
    </linearGradient>
    <linearGradient
       inkscape:collect="always"
       xlink:href="#Lightcloud"
       id="linearGradient2735"
       gradientUnits="userSpaceOnUse"
       x1="16.584036"
       y1="110.54974"
       x2="158.1151"
       y2="110.54974"
       gradientTransform="translate(177.84978,33.844289)" />
    <linearGradient
       inkscape:collect="always"
       id="Lightcloud">
      <stop
         style="stop-color:#f9f9f9;stop-opacity:1"
         offset="0"
         id="stop25100" />
      <stop
         id="stop25102"
         offset="0.47307122"
         style="stop-color:#fcfcfc;stop-opacity:1" />
      <stop
         style="stop-color:#fdfdfd;stop-opacity:1"
         offset="1"
         id="stop25104" />
    </linearGradient>
  </defs>
  <g
     inkscape:label="Layer 1"
     inkscape:groupmode="layer"
     id="layer1"
     transform="translate(-199.7061,-71.145145)">
    <path
       id="path884-4"
       style="fill:url(#linearGradient5862);fill-opacity:1;stroke:url(#linearGradient2735);stroke-width:6.00001;stroke-linecap:round;stroke-linejoin:round;stroke-miterlimit:4;stroke-dasharray:none;stroke-opacity:1"
       d="m 269.84576,114.57625 c -1.4369,0.0151 -2.8608,0.11811 -4.2674,0.31576 -1.5551,0.22251 -3.0698,0.56819 -4.5269,1.04436 -5.6402,1.85277 -9.7462,5.50542 -12.2313,9.18861 -3.4373,5.10574 -3.9717,9.61813 -3.7113,12.16099 -1.7435,-1.7952 -3.905,-3.51309 -6.5526,-4.9294 -1.7948,-0.94877 -3.7753,-1.74612 -5.9118,-2.31976 -3.9345,-0.74822 -8.3283,-0.23606 -12.2778,1.84743 -1.62032,0.88688 -3.10275,1.98839 -4.43797,3.2613 -1.89693,1.8084 -3.41635,3.88586 -4.58888,6.01359 -3.44072,6.18283 -4.46114,12.74749 -4.39664,18.2454 0.0122,2.7182 0.31676,5.2056 1.01854,7.50393 0.89858,2.96912 2.46589,5.17032 4.11036,6.59907 2.10653,1.80885 3.92636,2.27198 4.8705,2.23346 5.99549,1.18456 30.55069,2.03192 59.91679,1.97199 30.0908,-0.0614 55.1217,-1.05463 60.3121,-2.30632 0.01,0.0316 0.017,0.0605 0.036,0.0832 0.4298,0.52273 5.163,-1.34904 5.2642,-8.10753 0.01,-1.62009 -0.3034,-3.2299 -0.8144,-4.86222 -1.4096,-4.72919 -4.4927,-10.51531 -10.2547,-14.48646 -1.8541,-1.24241 -3.8885,-2.2329 -6.0554,-2.96985 -2.4345,-0.8279 -4.903,-1.29042 -7.2761,-1.48156 -4.9546,-0.40862 -9.6547,0.20228 -13.4472,0.93173 -1.2592,0.23355 -2.4803,0.50435 -3.6985,0.91623 0.2778,-1.18142 0.5719,-2.68613 0.8765,-4.48241 -0.065,-2.73656 -0.6361,-6.17324 -2.2381,-9.81078 -2.0654,-4.59281 -5.9044,-9.41153 -11.7172,-12.4866 -2.7375,-1.43047 -5.6831,-2.39003 -8.7405,-3.04993 -0.6545,-0.14565 -1.3183,-0.27908 -1.9901,-0.39791 -2.4443,-0.43227 -4.8749,-0.65137 -7.2699,-0.62632 z m -0.6097,5.25291 c 2.2354,-0.018 4.5545,0.20772 6.9551,0.62788 0.5995,0.10493 1.196,0.22087 1.788,0.3452 2.7622,0.60063 5.2799,1.3479 7.5205,2.45359 4.7396,2.30142 8.1937,6.09526 10.2975,9.77873 1.6411,2.79914 2.5258,5.59441 3.0159,7.95095 0.014,2.18937 0.085,3.96266 0.2144,5.23687 -2.3826,1.19671 -4.0657,2.85999 -5.1123,4.36099 -2.0004,2.87732 -1.9518,4.97803 -1.4883,5.14334 0.4634,0.16534 1.3523,-1.50129 3.515,-3.36309 1.3623,-1.17602 3.3263,-2.40451 5.8255,-2.96418 1.0408,-0.23979 2.1386,-0.34382 3.4794,-0.47231 3.6656,-0.3257 8.0925,-0.63592 12.3088,-0.13848 2.0261,0.24384 4.1012,0.65961 6.0906,1.32239 1.7738,0.59097 3.402,1.35252 4.8555,2.30116 4.5561,2.86538 7.5083,7.60058 9.2589,11.53107 0.5953,1.39557 1.0208,2.51833 1.187,3.64318 0.546,3.26136 -0.8335,5.65999 -1.4728,6.93912 -4.4823,-1.26876 -29.9329,-2.19731 -60.6263,-2.13476 -29.5174,0.0602 -54.1775,1.01758 -60.00614,2.23554 -0.72115,-0.57531 -1.83007,-1.45095 -2.91042,-2.9006 -1.0519,-1.38922 -1.90396,-3.24649 -2.36315,-5.71852 -0.35372,-1.93154 -0.36848,-3.99952 -0.20206,-6.47144 0.3702,-4.90818 1.53934,-10.69756 4.5408,-15.75978 1.03503,-1.72542 2.26807,-3.39616 3.70777,-4.79607 1.0152,-0.98708 2.1066,-1.81385 3.2763,-2.44017 2.7257,-1.53678 5.9094,-2.03502 8.7364,-1.62936 1.728,0.38108 3.359,0.93948 4.8633,1.62213 5.6516,2.52863 9.3311,6.78117 11.4355,9.85367 2.1504,3.13976 3.0157,5.30365 3.5005,5.17848 0.4849,-0.12515 0.5473,-2.5989 -1.0898,-6.47917 -0.7941,-1.88225 -2.0749,-4.15735 -3.9662,-6.40324 0.6048,-1.7994 1.5684,-6.47398 5.5966,-11.19209 2.3976,-2.81516 6.0054,-5.51894 10.543,-6.77375 1.1806,-0.32912 2.426,-0.56002 3.729,-0.70692 0.9815,-0.11369 1.98,-0.17216 2.9962,-0.18036 z" />
  </g>
</svg>
