<?xml version="1.0" encoding="UTF-8" standalone="no"?>
<!-- Created with Inkscape (http://www.inkscape.org/) -->

<svg
   width="150mm"
   height="150mm"
   viewBox="0 0 150 150"
   version="1.1"
   id="svg16003"
   inkscape:version="1.1 (c68e22c387, 2021-05-23)"
   sodipodi:docname="plain-storm-cloud.svg"
   xmlns:inkscape="http://www.inkscape.org/namespaces/inkscape"
   xmlns:sodipodi="http://sodipodi.sourceforge.net/DTD/sodipodi-0.dtd"
   xmlns="http://www.w3.org/2000/svg"
   xmlns:svg="http://www.w3.org/2000/svg">
  <sodipodi:namedview
     id="namedview16005"
     pagecolor="#ffffff"
     bordercolor="#666666"
     borderopacity="1.0"
     inkscape:pageshadow="2"
     inkscape:pageopacity="0.0"
     inkscape:pagecheckerboard="true"
     inkscape:document-units="mm"
     showgrid="false"
     fit-margin-top="5"
     lock-margins="true"
     fit-margin-left="5"
     fit-margin-right="5"
     fit-margin-bottom="5"
     inkscape:zoom="0.60221661"
     inkscape:cx="-113.74645"
     inkscape:cy="9.9631925"
     inkscape:window-width="1920"
     inkscape:window-height="1047"
     inkscape:window-x="-9"
     inkscape:window-y="-9"
     inkscape:window-maximized="1"
     inkscape:current-layer="layer1" />
  <defs
     id="defs16000" />
  <g
     inkscape:label="Layer 1"
     inkscape:groupmode="layer"
     id="layer1"
     transform="translate(-134.68263,-145.83435)">
    <path
       inkscape:connector-curvature="0"
       id="path884-2-0"
       d="m 205.54235,189.26509 c -1.68132,-0.0164 -3.34628,0.0852 -4.98729,0.31574 -1.55511,0.22252 -3.06982,0.56871 -4.52686,1.0449 -5.64028,1.85276 -9.74625,5.5054 -12.23129,9.18859 -3.77474,5.60683 -3.84885,10.05261 -3.45767,12.43232 -1.78699,-1.89276 -4.02598,-3.71392 -6.80631,-5.20124 -1.79479,-0.94875 -3.77531,-1.74612 -5.91178,-2.31975 -3.93449,-0.74821 -8.3283,-0.23556 -12.27781,1.84795 -1.6203,0.88687 -3.10273,1.98838 -4.43797,3.2613 -1.89692,1.80838 -3.41635,3.88533 -4.58886,6.01307 -3.44264,6.18625 -4.46065,12.79108 -4.39664,18.24591 0.0122,2.7182 0.31675,5.20507 1.01855,7.50342 0.89855,2.96912 2.46586,5.17083 4.11034,6.5996 1.86077,1.59782 3.44168,2.06206 4.43694,2.13785 5.13009,1.23411 30.20266,2.12907 60.35032,2.06758 30.09098,-0.0614 55.12183,-1.05515 60.31209,-2.30684 0.007,0.0316 0.017,0.0605 0.0357,0.0832 -0.0272,-0.033 -0.0309,-0.0615 -0.0139,-0.0884 0.46974,-0.11459 0.7886,-0.23147 0.91416,-0.34985 1.49153,-0.51896 4.27813,-1.92833 4.36407,-7.66878 0.006,-1.62011 -0.30339,-3.23044 -0.81442,-4.86276 -1.40963,-4.72918 -4.49266,-10.51477 -10.25467,-14.48593 -1.85409,-1.24241 -3.8885,-2.23342 -6.05544,-2.97037 -2.43445,-0.82791 -4.90297,-1.29044 -7.27604,-1.48156 -4.95463,-0.40861 -9.6548,0.20226 -13.44724,0.93173 -1.25939,0.23357 -2.48063,0.50477 -3.699,0.91674 0.27789,-1.1817 0.57226,-2.68566 0.87695,-4.48294 -0.0646,-2.73656 -0.63606,-6.17322 -2.23811,-9.81076 -2.06538,-4.59281 -5.90445,-9.411 -11.7172,-12.48606 -2.7375,-1.4305 -5.68309,-2.39057 -8.74056,-3.05046 -0.6544,-0.14567 -1.31822,-0.27858 -1.99006,-0.3974 -2.1999,-0.38905 -4.38829,-0.6057 -6.54999,-0.62683 z m -0.71779,5.25446 c 2.046,0.0236 4.16093,0.24487 6.34329,0.62683 0.59952,0.10494 1.19599,0.22038 1.788,0.34469 2.76217,0.60064 5.27989,1.3479 7.52047,2.4536 4.73964,2.30143 8.1938,6.09525 10.29757,9.77873 1.64102,2.79913 2.52583,5.59442 3.01584,7.95093 0.0141,2.19339 0.0872,3.96017 0.21704,5.23586 -2.38396,1.1968 -4.06795,2.861 -5.11493,4.36253 -2.05781,2.95995 -1.80329,5.03046 -1.48828,5.14283 0.46344,0.16533 1.3523,-1.50078 3.51503,-3.36258 1.36229,-1.17601 3.32628,-2.40502 5.82548,-2.96468 1.04081,-0.23981 2.13858,-0.34332 3.47937,-0.47181 3.66565,-0.32571 8.09257,-0.63645 12.30882,-0.139 2.02608,0.24385 4.1012,0.65961 6.09058,1.3224 1.77386,0.59097 3.40206,1.35251 4.85552,2.30115 4.55613,2.86539 7.50783,7.60058 9.25835,11.53108 0.59529,1.39557 1.02136,2.51833 1.18753,3.64318 0.54606,3.26136 -0.83351,5.65999 -1.47278,6.93912 -4.48229,-1.26877 -29.93292,-2.19685 -60.62629,-2.13424 -29.51816,0.0602 -54.17881,1.01703 -60.00667,2.23501 -0.72117,-0.5753 -1.82976,-1.45121 -2.90991,-2.9006 -1.0519,-1.3892 -1.90395,-3.24597 -2.36316,-5.718 -0.35371,-1.93154 -0.36847,-4.00003 -0.20205,-6.47196 0.3702,-4.90818 1.53934,-10.69704 4.54081,-15.75924 1.03502,-1.72543 2.26806,-3.3967 3.70778,-4.79661 1.01514,-0.98707 2.10658,-1.81385 3.27628,-2.44016 2.72575,-1.53678 5.90937,-2.03502 8.73642,-1.62936 1.72796,0.38108 3.359,0.93946 4.86327,1.62213 5.65157,2.52861 9.33112,6.78116 11.43548,9.85366 2.15044,3.13977 3.01569,5.30365 3.50056,5.17849 0.38996,-0.10065 0.56791,-2.5499 -1.08986,-6.47919 -0.79397,-1.88191 -2.07538,-4.15666 -3.96616,-6.40219 0.60474,-1.7989 1.56794,-6.47391 5.59656,-11.1926 2.39761,-2.81517 6.00545,-5.51945 10.54302,-6.77427 1.18062,-0.32911 2.42606,-0.5595 3.72897,-0.70641 1.17779,-0.13642 2.38045,-0.19346 3.60805,-0.17932 z"
       style="fill:none;fill-opacity:1;stroke:#4d4d4d;stroke-width:6;stroke-linecap:round;stroke-linejoin:round;stroke-miterlimit:4;stroke-dasharray:none;stroke-opacity:1" />
  </g>
</svg>
