<?xml version="1.0" encoding="UTF-8" standalone="no"?>
<!-- Created with Inkscape (http://www.inkscape.org/) -->

<svg
   width="150mm"
   height="150mm"
   viewBox="0 0 150 150"
   version="1.1"
   id="svg17556"
   inkscape:version="1.1 (c68e22c387, 2021-05-23)"
   sodipodi:docname="plain-dark-heavysnow.svg"
   xmlns:inkscape="http://www.inkscape.org/namespaces/inkscape"
   xmlns:sodipodi="http://sodipodi.sourceforge.net/DTD/sodipodi-0.dtd"
   xmlns="http://www.w3.org/2000/svg"
   xmlns:svg="http://www.w3.org/2000/svg">
  <sodipodi:namedview
     id="namedview17558"
     pagecolor="#ffffff"
     bordercolor="#666666"
     borderopacity="1.0"
     inkscape:pageshadow="2"
     inkscape:pageopacity="0.0"
     inkscape:pagecheckerboard="0"
     inkscape:document-units="mm"
     showgrid="false"
     inkscape:zoom="0.60221661"
     inkscape:cx="-73.893677"
     inkscape:cy="0"
     inkscape:window-width="1920"
     inkscape:window-height="1047"
     inkscape:window-x="-9"
     inkscape:window-y="-9"
     inkscape:window-maximized="1"
     inkscape:current-layer="layer1"
     fit-margin-top="5"
     lock-margins="true"
     fit-margin-left="5"
     fit-margin-right="5"
     fit-margin-bottom="5" />
  <defs
     id="defs17553" />
  <g
     inkscape:label="Layer 1"
     inkscape:groupmode="layer"
     id="layer1"
     transform="translate(-45.933949,-148.34961)">
    <g
       id="g3762"
       transform="translate(317.42066,-324.1337)"
       inkscape:label="Plain|Dark|Heavysnow">
      <path
         inkscape:connector-curvature="0"
         id="path884-2-0-3-5-3-1"
         d="m -200.62714,486.35682 c -1.6813,-0.0164 -3.3462,0.0852 -4.9872,0.31574 -1.5552,0.22252 -3.0699,0.56872 -4.5269,1.0449 -5.6403,1.85278 -9.7463,5.5054 -12.2313,9.18859 -3.7747,5.60684 -3.8489,10.05262 -3.4577,12.43233 -1.787,-1.89276 -4.026,-3.71393 -6.8063,-5.20124 -1.7948,-0.94876 -3.7753,-1.74612 -5.9118,-2.31975 -3.9345,-0.74821 -8.3283,-0.23557 -12.2778,1.84794 -1.6203,0.88687 -3.1028,1.98838 -4.438,3.26131 -1.8969,1.80837 -3.4163,3.88532 -4.5889,6.01306 -3.4426,6.18625 -4.4606,12.79108 -4.3966,18.24591 0.012,2.7182 0.3168,5.20508 1.0186,7.50343 0.8985,2.96912 2.4658,5.17082 4.1103,6.5996 1.8608,1.59781 3.4417,2.06206 4.4369,2.13785 5.1301,1.2341 30.2027,2.12907 60.3504,2.06757 30.091,-0.0614 55.12189,-1.05514 60.31205,-2.30683 0.01,0.0316 0.017,0.0605 0.036,0.0832 -0.027,-0.033 -0.031,-0.0615 -0.014,-0.0884 0.4697,-0.1146 0.7886,-0.23148 0.9142,-0.34986 1.4915,-0.51896 4.2781,-1.92833 4.364,-7.66878 0.01,-1.62011 -0.3033,-3.23043 -0.8144,-4.86276 -1.4096,-4.72918 -4.4926,-10.51477 -10.25466,-14.48593 -1.854,-1.24241 -3.8885,-2.23342 -6.0554,-2.97037 -2.4344,-0.82791 -4.903,-1.29044 -7.27599,-1.48156 -4.9547,-0.40861 -9.6548,0.20226 -13.4473,0.93173 -1.2594,0.23357 -2.4806,0.50477 -3.699,0.91674 0.2779,-1.1817 0.5723,-2.68566 0.877,-4.48294 -0.065,-2.73656 -0.6361,-6.17322 -2.2381,-9.81076 -2.0654,-4.59281 -5.9045,-9.411 -11.7172,-12.48606 -2.7375,-1.4305 -5.6831,-2.39057 -8.7406,-3.05046 -0.6544,-0.14567 -1.3182,-0.27858 -1.9901,-0.3974 -2.1999,-0.38905 -4.3883,-0.6057 -6.55,-0.62683 z m -0.7177,5.25446 c 2.046,0.0236 4.1609,0.24487 6.3432,0.62683 0.5996,0.10495 1.196,0.22038 1.788,0.3447 2.7622,0.60063 5.2799,1.34789 7.5205,2.4536 4.7397,2.30142 8.1938,6.09524 10.2976,9.77873 1.641,2.79912 2.5258,5.59441 3.0158,7.95093 0.014,2.19338 0.087,3.96017 0.2171,5.23585 -2.384,1.1968 -4.068,2.861 -5.115,4.36255 -2.0578,2.95995 -1.8032,5.03046 -1.4882,5.14281 0.4634,0.16533 1.3523,-1.50078 3.515,-3.36257 1.3623,-1.17601 3.3263,-2.40503 5.8255,-2.96468 1.0408,-0.23982 2.1386,-0.34332 3.4793,-0.47181 3.6657,-0.32572 8.0926,-0.63646 12.3089,-0.13899 2.026,0.24384 4.10119,0.6596 6.09049,1.32239 1.7739,0.59097 3.4021,1.35251 4.8556,2.30115 4.55606,2.86539 7.50776,7.60059 9.25826,11.53109 0.5953,1.39556 1.0214,2.51833 1.1875,3.64318 0.5461,3.26136 -0.8335,5.65998 -1.4728,6.93911 -4.4822,-1.26877 -29.93285,-2.19684 -60.62615,-2.13424 -29.5182,0.0602 -54.1789,1.01704 -60.0068,2.23503 -0.7211,-0.57531 -1.8297,-1.45121 -2.9099,-2.9006 -1.0519,-1.38921 -1.9039,-3.24597 -2.3631,-5.71801 -0.3537,-1.93155 -0.3685,-4.00002 -0.2021,-6.47196 0.3702,-4.90818 1.5394,-10.69705 4.5408,-15.75924 1.035,-1.72543 2.2681,-3.3967 3.7078,-4.7966 1.0151,-0.98708 2.1066,-1.81386 3.2763,-2.44018 2.7257,-1.53678 5.9094,-2.03501 8.7364,-1.62936 1.728,0.38108 3.359,0.93947 4.8633,1.62214 5.6516,2.5286 9.3311,6.78115 11.4355,9.85366 2.1505,3.13976 3.0157,5.30365 3.5006,5.17848 0.3899,-0.10065 0.5679,-2.5499 -1.0899,-6.47918 -0.794,-1.88191 -2.0754,-4.15668 -3.9662,-6.4022 0.6048,-1.7989 1.568,-6.47391 5.5966,-11.19261 2.3976,-2.81517 6.0055,-5.51943 10.543,-6.77427 1.1807,-0.32911 2.4261,-0.55948 3.729,-0.70639 1.1778,-0.13643 2.3805,-0.19346 3.6081,-0.17934 z"
         style="fill:none;fill-opacity:1;stroke:#4d4d4d;stroke-width:6;stroke-linecap:round;stroke-linejoin:round;stroke-miterlimit:4;stroke-dasharray:none;stroke-opacity:1" />
      <path
         style="fill:none;stroke:#43e8ff;stroke-width:4.03489;stroke-linecap:round;stroke-linejoin:miter;stroke-miterlimit:4;stroke-dasharray:none;stroke-opacity:1"
         d="m -232.07423,565.16362 -18.32323,19.12066"
         id="path30432-2-5-67-9-7-7" />
      <path
         style="fill:none;stroke:#43e8ff;stroke-width:4.03489;stroke-linecap:round;stroke-linejoin:miter;stroke-miterlimit:4;stroke-dasharray:none;stroke-opacity:1"
         d="m -231.55813,584.04723 -19.07224,-18.37362"
         id="path30432-9-5-1-91-3-1-4" />
      <path
         style="fill:none;stroke:#43e8ff;stroke-width:4.03489;stroke-linecap:round;stroke-linejoin:miter;stroke-miterlimit:4;stroke-dasharray:none;stroke-opacity:1"
         d="m -227.28602,574.29612 -26.47833,0.48825"
         id="path30432-6-2-4-7-6-2-7" />
      <path
         style="fill:none;stroke:#43e8ff;stroke-width:4.03489;stroke-linecap:round;stroke-linejoin:miter;stroke-miterlimit:4;stroke-dasharray:none;stroke-opacity:1"
         d="m -240.52874,561.44466 -0.78385,26.47123"
         id="path30432-4-6-0-9-1-3-9" />
      <path
         style="fill:none;stroke:#43e8ff;stroke-width:4.03489;stroke-linecap:round;stroke-linejoin:miter;stroke-miterlimit:4;stroke-dasharray:none;stroke-opacity:1"
         d="m -197.21536,586.84179 -18.32323,19.12066"
         id="path30432-2-5-1-9-8-7-7" />
      <path
         style="fill:none;stroke:#43e8ff;stroke-width:4.03489;stroke-linecap:round;stroke-linejoin:miter;stroke-miterlimit:4;stroke-dasharray:none;stroke-opacity:1"
         d="M -196.69926,605.7254 -215.7715,587.35179"
         id="path30432-9-5-1-97-6-0-1-1" />
      <path
         style="fill:none;stroke:#43e8ff;stroke-width:4.03489;stroke-linecap:round;stroke-linejoin:miter;stroke-miterlimit:4;stroke-dasharray:none;stroke-opacity:1"
         d="m -192.42715,595.97429 -26.47833,0.48826"
         id="path30432-6-2-4-6-2-5-4-7" />
      <path
         style="fill:none;stroke:#43e8ff;stroke-width:4.03489;stroke-linecap:round;stroke-linejoin:miter;stroke-miterlimit:4;stroke-dasharray:none;stroke-opacity:1"
         d="m -205.66987,583.12284 -0.78385,26.47123"
         id="path30432-4-6-0-6-9-6-5-4" />
      <path
         style="fill:none;stroke:#43e8ff;stroke-width:4.03489;stroke-linecap:round;stroke-linejoin:miter;stroke-miterlimit:4;stroke-dasharray:none;stroke-opacity:1"
         d="m -168.77793,562.75967 -18.32323,19.12065"
         id="path30432-2-5-6-9-9-4-4" />
      <path
         style="fill:none;stroke:#43e8ff;stroke-width:4.03489;stroke-linecap:round;stroke-linejoin:miter;stroke-miterlimit:4;stroke-dasharray:none;stroke-opacity:1"
         d="m -168.26183,581.64328 -19.07223,-18.37362"
         id="path30432-9-5-1-2-1-0-4-4" />
      <path
         style="fill:none;stroke:#43e8ff;stroke-width:4.03489;stroke-linecap:round;stroke-linejoin:miter;stroke-miterlimit:4;stroke-dasharray:none;stroke-opacity:1"
         d="m -163.98972,571.89216 -26.47833,0.48826"
         id="path30432-6-2-4-9-1-6-3-9" />
      <path
         style="fill:none;stroke:#43e8ff;stroke-width:4.03489;stroke-linecap:round;stroke-linejoin:miter;stroke-miterlimit:4;stroke-dasharray:none;stroke-opacity:1"
         d="m -177.23244,559.04071 -0.78385,26.47123"
         id="path30432-4-6-0-5-3-0-6-8" />
      <path
         style="fill:none;stroke:#43e8ff;stroke-width:4.03489;stroke-linecap:round;stroke-linejoin:miter;stroke-miterlimit:4;stroke-dasharray:none;stroke-opacity:1"
         d="m -137.69661,583.31659 -18.32323,19.12066"
         id="path30432-2-5-4-8-6-5-85" />
      <path
         style="fill:none;stroke:#43e8ff;stroke-width:4.03489;stroke-linecap:round;stroke-linejoin:miter;stroke-miterlimit:4;stroke-dasharray:none;stroke-opacity:1"
         d="m -137.18051,602.2002 -19.07223,-18.37361"
         id="path30432-9-5-1-5-3-7-7-1" />
      <path
         style="fill:none;stroke:#43e8ff;stroke-width:4.03489;stroke-linecap:round;stroke-linejoin:miter;stroke-miterlimit:4;stroke-dasharray:none;stroke-opacity:1"
         d="m -132.9084,592.44909 -26.47833,0.48826"
         id="path30432-6-2-4-8-3-1-2-1" />
      <path
         style="fill:none;stroke:#43e8ff;stroke-width:4.03489;stroke-linecap:round;stroke-linejoin:miter;stroke-miterlimit:4;stroke-dasharray:none;stroke-opacity:1"
         d="m -146.15112,579.59764 -0.78385,26.47123"
         id="path30432-4-6-0-3-3-5-6-5" />
    </g>
  </g>
</svg>
