<?xml version="1.0" encoding="UTF-8" standalone="no"?>
<!-- Created with Inkscape (http://www.inkscape.org/) -->

<svg
   width="150mm"
   height="150mm"
   viewBox="0 0 150 150"
   version="1.1"
   id="svg17183"
   inkscape:version="1.1 (c68e22c387, 2021-05-23)"
   sodipodi:docname="plain-dark-snow.svg"
   xmlns:inkscape="http://www.inkscape.org/namespaces/inkscape"
   xmlns:sodipodi="http://sodipodi.sourceforge.net/DTD/sodipodi-0.dtd"
   xmlns="http://www.w3.org/2000/svg"
   xmlns:svg="http://www.w3.org/2000/svg">
  <sodipodi:namedview
     id="namedview17185"
     pagecolor="#ffffff"
     bordercolor="#666666"
     borderopacity="1.0"
     inkscape:pageshadow="2"
     inkscape:pageopacity="0.0"
     inkscape:pagecheckerboard="0"
     inkscape:document-units="mm"
     showgrid="false"
     fit-margin-top="5"
     lock-margins="true"
     fit-margin-left="5"
     fit-margin-right="5"
     fit-margin-bottom="5"
     inkscape:zoom="0.60221661"
     inkscape:cx="-5.8118623"
     inkscape:cy="285.61152"
     inkscape:window-width="1920"
     inkscape:window-height="1047"
     inkscape:window-x="-9"
     inkscape:window-y="-9"
     inkscape:window-maximized="1"
     inkscape:current-layer="layer1" />
  <defs
     id="defs17180" />
  <g
     inkscape:label="Layer 1"
     inkscape:groupmode="layer"
     id="layer1"
     transform="translate(-27.920639,-73.125135)">
    <g
       id="g55920"
       transform="translate(246.54246,-316.1537)"
       inkscape:label="Plain|Dark|Lightsnow">
      <path
         inkscape:connector-curvature="0"
         id="path884-2-0-3-5-6"
         d="m -147.76231,404.3746 c -1.6813,-0.0164 -3.3462,0.0852 -4.9872,0.31574 -1.5552,0.22252 -3.0699,0.56872 -4.5269,1.0449 -5.6403,1.85278 -9.7463,5.5054 -12.2313,9.18859 -3.77468,5.60684 -3.84888,10.05262 -3.45768,12.43233 -1.787,-1.89276 -4.026,-3.71393 -6.8063,-5.20124 -1.7948,-0.94876 -3.7753,-1.74612 -5.9118,-2.31975 -3.9345,-0.74821 -8.3283,-0.23557 -12.2778,1.84794 -1.6203,0.88687 -3.10275,1.98838 -4.43795,3.26131 -1.8969,1.80837 -3.4163,3.88532 -4.5889,6.01306 -3.4426,6.18625 -4.4606,12.79108 -4.3966,18.24591 0.012,2.7182 0.3168,5.20508 1.0186,7.50343 0.8985,2.96912 2.4658,5.17082 4.1103,6.5996 1.8608,1.59781 3.4417,2.06206 4.4369,2.13785 5.13005,1.2341 30.20265,2.12907 60.35033,2.06757 30.091,-0.0614 55.1219,-1.05514 60.3121,-2.30683 0.01,0.0316 0.017,0.0605 0.036,0.0832 -0.027,-0.033 -0.031,-0.0615 -0.014,-0.0884 0.4697,-0.1146 0.7886,-0.23148 0.9142,-0.34986 1.4915,-0.51896 4.2781,-1.92833 4.364,-7.66878 0.01,-1.62011 -0.3033,-3.23043 -0.8144,-4.86276 -1.4096,-4.72918 -4.4926,-10.51477 -10.2547,-14.48593 -1.854,-1.24241 -3.8885,-2.23342 -6.0554,-2.97037 -2.4344,-0.82791 -4.903,-1.29044 -7.276,-1.48156 -4.9547,-0.40861 -9.6548,0.20226 -13.4473,0.93173 -1.2594,0.23357 -2.4806,0.50477 -3.699,0.91674 0.2779,-1.1817 0.5723,-2.68566 0.877,-4.48294 -0.065,-2.73656 -0.6361,-6.17322 -2.2381,-9.81076 -2.0654,-4.59281 -5.9045,-9.411 -11.7172,-12.48606 -2.7375,-1.4305 -5.6831,-2.39057 -8.7406,-3.05046 -0.6544,-0.14567 -1.3182,-0.27858 -1.9901,-0.3974 -2.1999,-0.38905 -4.3883,-0.6057 -6.55,-0.62683 z m -0.7177,5.25446 c 2.046,0.0236 4.1609,0.24487 6.3432,0.62683 0.5996,0.10495 1.196,0.22038 1.788,0.3447 2.7622,0.60063 5.2799,1.34789 7.5205,2.4536 4.7397,2.30142 8.1938,6.09524 10.2976,9.77873 1.641,2.79912 2.5258,5.59441 3.0158,7.95093 0.014,2.19338 0.087,3.96017 0.2171,5.23585 -2.384,1.1968 -4.068,2.861 -5.115,4.36255 -2.0578,2.95995 -1.8032,5.03046 -1.4882,5.14281 0.4634,0.16533 1.3523,-1.50078 3.515,-3.36257 1.3623,-1.17601 3.3263,-2.40503 5.8255,-2.96468 1.0408,-0.23982 2.1386,-0.34332 3.4793,-0.47181 3.6657,-0.32572 8.0926,-0.63646 12.3089,-0.13899 2.026,0.24384 4.1012,0.6596 6.0905,1.32239 1.7739,0.59097 3.4021,1.35251 4.8556,2.30115 4.5561,2.86539 7.5078,7.60059 9.2583,11.53109 0.5953,1.39556 1.0214,2.51833 1.1875,3.64318 0.5461,3.26136 -0.8335,5.65998 -1.4728,6.93911 -4.4822,-1.26877 -29.9329,-2.19684 -60.6262,-2.13424 -29.51818,0.0602 -54.17888,1.01704 -60.00673,2.23503 -0.7211,-0.57531 -1.8297,-1.45121 -2.9099,-2.9006 -1.0519,-1.38921 -1.9039,-3.24597 -2.3631,-5.71801 -0.3537,-1.93155 -0.3685,-4.00002 -0.2021,-6.47196 0.3702,-4.90818 1.5394,-10.69705 4.5408,-15.75924 1.035,-1.72543 2.2681,-3.3967 3.70775,-4.7966 1.0151,-0.98708 2.1066,-1.81386 3.2763,-2.44018 2.7257,-1.53678 5.9094,-2.03501 8.7364,-1.62936 1.728,0.38108 3.359,0.93947 4.8633,1.62214 5.6516,2.5286 9.3311,6.78115 11.4355,9.85366 2.15048,3.13976 3.01568,5.30365 3.50058,5.17848 0.3899,-0.10065 0.5679,-2.5499 -1.0899,-6.47918 -0.794,-1.88191 -2.0754,-4.15668 -3.96618,-6.4022 0.6048,-1.7989 1.568,-6.47391 5.59658,-11.19261 2.3976,-2.81517 6.0055,-5.51943 10.543,-6.77427 1.1807,-0.32911 2.4261,-0.55948 3.729,-0.70639 1.1778,-0.13643 2.3805,-0.19346 3.6081,-0.17934 z"
         style="fill:none;fill-opacity:1;stroke:#4d4d4d;stroke-width:6;stroke-linecap:round;stroke-linejoin:round;stroke-miterlimit:4;stroke-dasharray:none;stroke-opacity:1" />
      <path
         style="fill:none;stroke:#43e8ff;stroke-width:2.64499;stroke-linecap:round;stroke-linejoin:miter;stroke-miterlimit:4;stroke-dasharray:none;stroke-opacity:1"
         d="M -186.53819,481.6605 -198.548,494.19635"
         id="path30432-2-5-4-06-7-5" />
      <path
         style="fill:none;stroke:#43e8ff;stroke-width:2.64499;stroke-linecap:round;stroke-linejoin:miter;stroke-miterlimit:4;stroke-dasharray:none;stroke-opacity:1"
         d="m -186.19991,494.04094 -12.50074,-12.04608"
         id="path30432-9-5-1-5-8-7-0" />
      <path
         style="fill:none;stroke:#43e8ff;stroke-width:2.64499;stroke-linecap:round;stroke-linejoin:miter;stroke-miterlimit:4;stroke-dasharray:none;stroke-opacity:1"
         d="m -183.39979,487.64793 -17.35501,0.32011"
         id="path30432-6-2-4-8-17-6-0" />
      <path
         style="fill:none;stroke:#43e8ff;stroke-width:2.64499;stroke-linecap:round;stroke-linejoin:miter;stroke-miterlimit:4;stroke-dasharray:none;stroke-opacity:1"
         d="m -192.07962,479.22229 -0.51377,17.35501"
         id="path30432-4-6-0-3-35-2-8" />
      <path
         style="fill:none;stroke:#43e8ff;stroke-width:2.64499;stroke-linecap:round;stroke-linejoin:miter;stroke-miterlimit:4;stroke-dasharray:none;stroke-opacity:1"
         d="m -161.24884,479.20244 -12.00981,12.53585"
         id="path30432-2-5-4-7-7-5-1" />
      <path
         style="fill:none;stroke:#43e8ff;stroke-width:2.64499;stroke-linecap:round;stroke-linejoin:miter;stroke-miterlimit:4;stroke-dasharray:none;stroke-opacity:1"
         d="M -160.91056,491.58288 -173.4113,479.5368"
         id="path30432-9-5-1-5-1-6-0-8" />
      <path
         style="fill:none;stroke:#43e8ff;stroke-width:2.64499;stroke-linecap:round;stroke-linejoin:miter;stroke-miterlimit:4;stroke-dasharray:none;stroke-opacity:1"
         d="m -158.11044,485.18987 -17.35501,0.32011"
         id="path30432-6-2-4-8-2-5-7-4" />
      <path
         style="fill:none;stroke:#43e8ff;stroke-width:2.64499;stroke-linecap:round;stroke-linejoin:miter;stroke-miterlimit:4;stroke-dasharray:none;stroke-opacity:1"
         d="m -166.79027,476.76423 -0.51377,17.35501"
         id="path30432-4-6-0-3-6-5-9-0" />
      <path
         style="fill:none;stroke:#43e8ff;stroke-width:2.64499;stroke-linecap:round;stroke-linejoin:miter;stroke-miterlimit:4;stroke-dasharray:none;stroke-opacity:1"
         d="m -180.3806,507.16757 -12.00981,12.53585"
         id="path30432-2-5-4-9-2-5-3" />
      <path
         style="fill:none;stroke:#43e8ff;stroke-width:2.64499;stroke-linecap:round;stroke-linejoin:miter;stroke-miterlimit:4;stroke-dasharray:none;stroke-opacity:1"
         d="m -180.04232,519.54801 -12.50074,-12.04607"
         id="path30432-9-5-1-5-5-2-5-5" />
      <path
         style="fill:none;stroke:#43e8ff;stroke-width:2.64499;stroke-linecap:round;stroke-linejoin:miter;stroke-miterlimit:4;stroke-dasharray:none;stroke-opacity:1"
         d="m -177.2422,513.155 -17.35501,0.32011"
         id="path30432-6-2-4-8-1-4-7-1" />
      <path
         style="fill:none;stroke:#43e8ff;stroke-width:2.64499;stroke-linecap:round;stroke-linejoin:miter;stroke-miterlimit:4;stroke-dasharray:none;stroke-opacity:1"
         d="m -185.92203,504.72936 -0.51377,17.35501"
         id="path30432-4-6-0-3-2-6-1-5" />
      <path
         style="fill:none;stroke:#43e8ff;stroke-width:2.64499;stroke-linecap:round;stroke-linejoin:miter;stroke-miterlimit:4;stroke-dasharray:none;stroke-opacity:1"
         d="m -136.41796,486.31083 -12.00981,12.53585"
         id="path30432-2-5-4-6-4-6-3" />
      <path
         style="fill:none;stroke:#43e8ff;stroke-width:2.64499;stroke-linecap:round;stroke-linejoin:miter;stroke-miterlimit:4;stroke-dasharray:none;stroke-opacity:1"
         d="m -136.07968,498.69127 -12.50074,-12.04608"
         id="path30432-9-5-1-5-7-1-4-1" />
      <path
         style="fill:none;stroke:#43e8ff;stroke-width:2.64499;stroke-linecap:round;stroke-linejoin:miter;stroke-miterlimit:4;stroke-dasharray:none;stroke-opacity:1"
         d="m -133.27956,492.29826 -17.35501,0.32011"
         id="path30432-6-2-4-8-8-8-1-1" />
      <path
         style="fill:none;stroke:#43e8ff;stroke-width:2.64499;stroke-linecap:round;stroke-linejoin:miter;stroke-miterlimit:4;stroke-dasharray:none;stroke-opacity:1"
         d="m -141.95939,483.87262 -0.51377,17.35501"
         id="path30432-4-6-0-3-33-8-3-8" />
      <path
         style="fill:none;stroke:#43e8ff;stroke-width:2.64499;stroke-linecap:round;stroke-linejoin:miter;stroke-miterlimit:4;stroke-dasharray:none;stroke-opacity:1"
         d="m -150.22887,506.50799 -12.00981,12.53585"
         id="path30432-2-5-4-0-1-6-9" />
      <path
         style="fill:none;stroke:#43e8ff;stroke-width:2.64499;stroke-linecap:round;stroke-linejoin:miter;stroke-miterlimit:4;stroke-dasharray:none;stroke-opacity:1"
         d="m -149.89059,518.88843 -12.50074,-12.04607"
         id="path30432-9-5-1-5-53-6-4-6" />
      <path
         style="fill:none;stroke:#43e8ff;stroke-width:2.64499;stroke-linecap:round;stroke-linejoin:miter;stroke-miterlimit:4;stroke-dasharray:none;stroke-opacity:1"
         d="m -147.09047,512.49542 -17.35501,0.32011"
         id="path30432-6-2-4-8-4-1-5-9" />
      <path
         style="fill:none;stroke:#43e8ff;stroke-width:2.64499;stroke-linecap:round;stroke-linejoin:miter;stroke-miterlimit:4;stroke-dasharray:none;stroke-opacity:1"
         d="m -155.7703,504.06978 -0.51377,17.35501"
         id="path30432-4-6-0-3-4-5-0-5" />
      <path
         style="fill:none;stroke:#43e8ff;stroke-width:2.64499;stroke-linecap:round;stroke-linejoin:miter;stroke-miterlimit:4;stroke-dasharray:none;stroke-opacity:1"
         d="m -110.82644,478.18065 -12.00981,12.53585"
         id="path30432-2-5-4-3-1-7-5" />
      <path
         style="fill:none;stroke:#43e8ff;stroke-width:2.64499;stroke-linecap:round;stroke-linejoin:miter;stroke-miterlimit:4;stroke-dasharray:none;stroke-opacity:1"
         d="M -110.48816,490.56109 -122.9889,478.51501"
         id="path30432-9-5-1-5-2-3-3-2" />
      <path
         style="fill:none;stroke:#43e8ff;stroke-width:2.64499;stroke-linecap:round;stroke-linejoin:miter;stroke-miterlimit:4;stroke-dasharray:none;stroke-opacity:1"
         d="m -107.68804,484.16808 -17.35501,0.32011"
         id="path30432-6-2-4-8-5-9-1-3" />
      <path
         style="fill:none;stroke:#43e8ff;stroke-width:2.64499;stroke-linecap:round;stroke-linejoin:miter;stroke-miterlimit:4;stroke-dasharray:none;stroke-opacity:1"
         d="m -116.36787,475.74244 -0.51377,17.35501"
         id="path30432-4-6-0-3-9-1-1-2" />
      <path
         style="fill:none;stroke:#43e8ff;stroke-width:2.64499;stroke-linecap:round;stroke-linejoin:miter;stroke-miterlimit:4;stroke-dasharray:none;stroke-opacity:1"
         d="M -85.385147,482.63506 -97.39496,495.17091"
         id="path30432-2-5-4-98-3-4-5" />
      <path
         style="fill:none;stroke:#43e8ff;stroke-width:2.64499;stroke-linecap:round;stroke-linejoin:miter;stroke-miterlimit:4;stroke-dasharray:none;stroke-opacity:1"
         d="M -85.04687,495.0155 -97.547614,482.96942"
         id="path30432-9-5-1-5-15-4-1-7" />
      <path
         style="fill:none;stroke:#43e8ff;stroke-width:2.64499;stroke-linecap:round;stroke-linejoin:miter;stroke-miterlimit:4;stroke-dasharray:none;stroke-opacity:1"
         d="M -82.246751,488.62249 -99.60176,488.9426"
         id="path30432-6-2-4-8-84-5-2-8" />
      <path
         style="fill:none;stroke:#43e8ff;stroke-width:2.64499;stroke-linecap:round;stroke-linejoin:miter;stroke-miterlimit:4;stroke-dasharray:none;stroke-opacity:1"
         d="m -90.926584,480.19685 -0.513768,17.35501"
         id="path30432-4-6-0-3-40-7-4-5" />
      <path
         style="fill:none;stroke:#43e8ff;stroke-width:2.64499;stroke-linecap:round;stroke-linejoin:miter;stroke-miterlimit:4;stroke-dasharray:none;stroke-opacity:1"
         d="m -115.96727,501.56168 -12.00981,12.53585"
         id="path30432-2-5-4-78-1-0-4" />
      <path
         style="fill:none;stroke:#43e8ff;stroke-width:2.64499;stroke-linecap:round;stroke-linejoin:miter;stroke-miterlimit:4;stroke-dasharray:none;stroke-opacity:1"
         d="m -115.62899,513.94212 -12.50074,-12.04607"
         id="path30432-9-5-1-5-19-2-1-6" />
      <path
         style="fill:none;stroke:#43e8ff;stroke-width:2.64499;stroke-linecap:round;stroke-linejoin:miter;stroke-miterlimit:4;stroke-dasharray:none;stroke-opacity:1"
         d="m -112.82887,507.54911 -17.35501,0.32011"
         id="path30432-6-2-4-8-0-5-6-9" />
      <path
         style="fill:none;stroke:#43e8ff;stroke-width:2.64499;stroke-linecap:round;stroke-linejoin:miter;stroke-miterlimit:4;stroke-dasharray:none;stroke-opacity:1"
         d="m -121.5087,499.12347 -0.51377,17.35501"
         id="path30432-4-6-0-3-1-2-5-7" />
      <path
         style="fill:none;stroke:#43e8ff;stroke-width:2.64499;stroke-linecap:round;stroke-linejoin:miter;stroke-miterlimit:4;stroke-dasharray:none;stroke-opacity:1"
         d="m -89.923277,510.94548 -12.009813,12.53585"
         id="path30432-2-5-4-79-3-0-8" />
      <path
         style="fill:none;stroke:#43e8ff;stroke-width:2.64499;stroke-linecap:round;stroke-linejoin:miter;stroke-miterlimit:4;stroke-dasharray:none;stroke-opacity:1"
         d="m -89.585,523.32592 -12.50074,-12.04607"
         id="path30432-9-5-1-5-52-3-7-7" />
      <path
         style="fill:none;stroke:#43e8ff;stroke-width:2.64499;stroke-linecap:round;stroke-linejoin:miter;stroke-miterlimit:4;stroke-dasharray:none;stroke-opacity:1"
         d="m -86.784881,516.93291 -17.355009,0.32011"
         id="path30432-6-2-4-8-6-1-1-7" />
      <path
         style="fill:none;stroke:#43e8ff;stroke-width:2.64499;stroke-linecap:round;stroke-linejoin:miter;stroke-miterlimit:4;stroke-dasharray:none;stroke-opacity:1"
         d="m -95.464714,508.50727 -0.513768,17.35501"
         id="path30432-4-6-0-3-18-6-4-9" />
    </g>
  </g>
</svg>
