<?xml version="1.0" encoding="UTF-8" standalone="no"?>
<!-- Created with Inkscape (http://www.inkscape.org/) -->

<svg
   width="150mm"
   height="150mm"
   viewBox="0 0 150 150"
   version="1.1"
   id="svg17855"
   inkscape:version="1.1 (c68e22c387, 2021-05-23)"
   sodipodi:docname="plain-light-heavysnow.svg"
   xmlns:inkscape="http://www.inkscape.org/namespaces/inkscape"
   xmlns:sodipodi="http://sodipodi.sourceforge.net/DTD/sodipodi-0.dtd"
   xmlns:xlink="http://www.w3.org/1999/xlink"
   xmlns="http://www.w3.org/2000/svg"
   xmlns:svg="http://www.w3.org/2000/svg">
  <sodipodi:namedview
     id="namedview17857"
     pagecolor="#ffffff"
     bordercolor="#666666"
     borderopacity="1.0"
     inkscape:pageshadow="2"
     inkscape:pageopacity="0.0"
     inkscape:pagecheckerboard="true"
     inkscape:document-units="mm"
     showgrid="false"
     inkscape:zoom="0.60221661"
     inkscape:cx="-40.683036"
     inkscape:cy="335.42748"
     inkscape:window-width="1920"
     inkscape:window-height="1047"
     inkscape:window-x="-9"
     inkscape:window-y="-9"
     inkscape:window-maximized="1"
     inkscape:current-layer="layer1"
     fit-margin-top="5"
     lock-margins="true"
     fit-margin-left="5"
     fit-margin-right="5"
     fit-margin-bottom="5" />
  <defs
     id="defs17852">
    <linearGradient
       inkscape:collect="always"
       xlink:href="#Darkercloud"
       id="linearGradient52628"
       gradientUnits="userSpaceOnUse"
       x1="20.263622"
       y1="112.12571"
       x2="59.116428"
       y2="121.51217"
       gradientTransform="translate(-45.551676,467.95597)" />
    <linearGradient
       id="Darkercloud"
       inkscape:collect="always">
      <stop
         id="stop938"
         offset="0"
         style="stop-color:#f9f9f9;stop-opacity:1" />
      <stop
         style="stop-color:#ececec;stop-opacity:1"
         offset="1"
         id="stop940" />
    </linearGradient>
  </defs>
  <g
     inkscape:label="Layer 1"
     inkscape:groupmode="layer"
     id="layer1"
     transform="translate(-37.147188,-59.600754)">
    <g
       id="g3544"
       transform="translate(60.843101,-475.21311)"
       inkscape:label="Plain|Light|Heavysnow">
      <path
         id="path884-4-6-9-2"
         style="fill:url(#linearGradient52628);fill-opacity:1;stroke:#ffffff;stroke-width:6.00001;stroke-linecap:round;stroke-linejoin:round;stroke-miterlimit:4;stroke-dasharray:none;stroke-opacity:1"
         d="m 46.444544,548.68778 c -1.436979,0.0151 -2.861363,0.11811 -4.267941,0.31575 -1.555115,0.22251 -3.069299,0.56869 -4.52636,1.04489 -5.640281,1.85275 -9.746244,5.5054 -12.23129,9.18858 -3.437837,5.10644 -3.972031,9.61885 -3.71139,12.16152 -1.743577,-1.79541 -3.904721,-3.51398 -6.552565,-4.93043 -1.794801,-0.94877 -3.775313,-1.74612 -5.9117967,-2.31976 -3.9344864,-0.74821 -8.32828952,-0.23556 -12.2778043,1.84796 -1.6203083,0.88685 -3.1027422,1.98786 -4.437962,3.26078 -1.8969302,1.8084 -3.416353,3.88585 -4.58888,6.01358 -3.440721,6.18283 -4.461669,12.74749 -4.397137,18.2454 v 0 c 0.01217,2.71817 0.317262,5.20504 1.019069,7.5034 0.898551,2.96913 2.465864,5.17083 4.110328,6.59961 2.1057398,1.80816 3.9245121,2.27105 4.8689423,2.23292 5.99312992,1.18472 30.5495057,2.03245 59.9178057,1.9725 30.090956,-0.0614 55.122337,-1.05514 60.312587,-2.30683 0.007,0.0316 0.0164,0.0605 0.0351,0.0832 0.42982,0.52273 5.16311,-1.3485 5.26428,-8.10699 0.006,-1.62013 -0.30287,-3.23043 -0.81391,-4.86276 -1.40962,-4.72918 -4.49318,-10.5153 -10.25517,-14.48646 -1.85409,-1.24241 -3.888,-2.2329 -6.05494,-2.96984 -2.434454,-0.82791 -4.903493,-1.29043 -7.276541,-1.48156 -4.95464,-0.40863 -9.654804,0.20224 -13.447262,0.93173 -1.259232,0.23354 -2.479755,0.50487 -3.697949,0.91672 0.277786,-1.18147 0.571341,-2.68639 0.875903,-4.48291 -0.06464,-2.73656 -0.636058,-6.17323 -2.23811,-9.81078 -2.065285,-4.59279 -5.904363,-9.41099 -11.7171,-12.48605 -2.737485,-1.4305 -5.682562,-2.39057 -8.740034,-3.05047 -0.654394,-0.14568 -1.318207,-0.27858 -1.990063,-0.3974 -2.444327,-0.43228 -4.874869,-0.65188 -7.26985,-0.62682 z m -0.609786,5.2529 c 2.235465,-0.018 4.554538,0.20823 6.955155,0.62839 0.59952,0.10493 1.19597,0.22037 1.788001,0.34469 2.762171,0.60064 5.279893,1.3479 7.520464,2.45359 4.73964,2.30143 8.193775,6.09526 10.297557,9.77874 1.641025,2.79913 2.525315,5.5944 3.015324,7.95094 0.01402,2.18956 0.08586,3.96317 0.214974,5.2374 -2.382547,1.19671 -4.065773,2.86001 -5.112359,4.36097 -2.000356,2.87731 -1.951725,4.97752 -1.488281,5.14284 0.463444,0.16533 1.351783,-1.5008 3.514513,-3.36259 1.362287,-1.176 3.326818,-2.40501 5.826019,-2.96469 1.040792,-0.23979 2.138575,-0.34329 3.479377,-0.4718 3.665617,-0.3257 8.092546,-0.63643 12.308787,-0.13899 2.0261,0.24384 4.1012,0.65961 6.090601,1.32239 1.77385,0.59097 3.40204,1.35252 4.8555,2.30116 4.55615,2.86539 7.50785,7.60058 9.25836,11.53107 0.59528,1.39557 1.02084,2.51833 1.187,3.64318 0.54607,3.26136 -0.8335,5.65999 -1.47278,6.93912 -4.48382,-1.26867 -29.934166,-2.19681 -60.626255,-2.13423 -29.518927,0.0602 -54.17965465,1.01698 -60.0066792,2.23499 -0.7211483,-0.57529 -1.8292497,-1.45119 -2.9093847,-2.90058 -1.0519041,-1.38922 -1.9039681,-3.24599 -2.3631521,-5.71801 -0.353722,-1.93152 -0.368988,-4.00003 -0.202592,-6.47195 0.370232,-4.90818 1.539875,-10.69755 4.5413349,-15.75977 1.0350235,-1.72543 2.2680612,-3.39617 3.7077914,-4.79608 1.0151269,-0.98708 2.106586,-1.81385 3.27628246,-2.44017 2.72573744,-1.53678 5.90936284,-2.03502 8.73640924,-1.62936 1.7279673,0.38108 3.359018,0.93948 4.86328,1.62213 5.651553,2.52863 9.331113,6.78117 11.435476,9.85367 2.150428,3.13976 3.015695,5.30365 3.500544,5.17848 0.484875,-0.12515 0.547237,-2.5989 -1.089845,-6.47917 -0.794094,-1.88222 -2.074863,-4.15735 -3.966157,-6.40324 0.604758,-1.79964 1.568661,-6.47374 5.596546,-11.19155 2.397627,-2.81517 6.005459,-5.51948 10.543037,-6.77429 1.180623,-0.32911 2.425541,-0.55949 3.728455,-0.70641 0.981472,-0.11369 1.980591,-0.17267 2.996697,-0.18087 z" />
      <path
         style="fill:none;stroke:#43e8ff;stroke-width:4.03489;stroke-linecap:round;stroke-linejoin:miter;stroke-miterlimit:4;stroke-dasharray:none;stroke-opacity:1"
         d="M 15.717327,627.49451 -2.6059032,646.61517"
         id="path30432-2-5-67-9-7-3" />
      <path
         style="fill:none;stroke:#43e8ff;stroke-width:4.03489;stroke-linecap:round;stroke-linejoin:miter;stroke-miterlimit:4;stroke-dasharray:none;stroke-opacity:1"
         d="M 16.233432,646.37813 -2.8388062,628.00451"
         id="path30432-9-5-1-91-3-1-0" />
      <path
         style="fill:none;stroke:#43e8ff;stroke-width:4.03489;stroke-linecap:round;stroke-linejoin:miter;stroke-miterlimit:4;stroke-dasharray:none;stroke-opacity:1"
         d="m 20.505542,636.62701 -26.4783335,0.48826"
         id="path30432-6-2-4-7-6-2-6" />
      <path
         style="fill:none;stroke:#43e8ff;stroke-width:4.03489;stroke-linecap:round;stroke-linejoin:miter;stroke-miterlimit:4;stroke-dasharray:none;stroke-opacity:1"
         d="M 7.2628212,623.77556 6.4789728,650.24679"
         id="path30432-4-6-0-9-1-3-4" />
      <path
         style="fill:none;stroke:#43e8ff;stroke-width:4.03489;stroke-linecap:round;stroke-linejoin:miter;stroke-miterlimit:4;stroke-dasharray:none;stroke-opacity:1"
         d="m 50.576198,649.17269 -18.32323,19.12065"
         id="path30432-2-5-1-9-8-7-9" />
      <path
         style="fill:none;stroke:#43e8ff;stroke-width:4.03489;stroke-linecap:round;stroke-linejoin:miter;stroke-miterlimit:4;stroke-dasharray:none;stroke-opacity:1"
         d="M 51.092303,668.0563 32.020065,649.68268"
         id="path30432-9-5-1-97-6-0-1-8" />
      <path
         style="fill:none;stroke:#43e8ff;stroke-width:4.03489;stroke-linecap:round;stroke-linejoin:miter;stroke-miterlimit:4;stroke-dasharray:none;stroke-opacity:1"
         d="M 55.364413,658.30518 28.88608,658.79344"
         id="path30432-6-2-4-6-2-5-4-5" />
      <path
         style="fill:none;stroke:#43e8ff;stroke-width:4.03489;stroke-linecap:round;stroke-linejoin:miter;stroke-miterlimit:4;stroke-dasharray:none;stroke-opacity:1"
         d="m 42.121692,645.45373 -0.783848,26.47123"
         id="path30432-4-6-0-6-9-6-5-7" />
      <path
         style="fill:none;stroke:#43e8ff;stroke-width:4.03489;stroke-linecap:round;stroke-linejoin:miter;stroke-miterlimit:4;stroke-dasharray:none;stroke-opacity:1"
         d="m 79.013632,625.09055 -18.32323,19.12066"
         id="path30432-2-5-6-9-9-4-6" />
      <path
         style="fill:none;stroke:#43e8ff;stroke-width:4.03489;stroke-linecap:round;stroke-linejoin:miter;stroke-miterlimit:4;stroke-dasharray:none;stroke-opacity:1"
         d="M 79.529737,643.97416 60.457499,625.60055"
         id="path30432-9-5-1-2-1-0-4-5" />
      <path
         style="fill:none;stroke:#43e8ff;stroke-width:4.03489;stroke-linecap:round;stroke-linejoin:miter;stroke-miterlimit:4;stroke-dasharray:none;stroke-opacity:1"
         d="m 83.801847,634.22305 -26.478333,0.48826"
         id="path30432-6-2-4-9-1-6-3-3" />
      <path
         style="fill:none;stroke:#43e8ff;stroke-width:4.03489;stroke-linecap:round;stroke-linejoin:miter;stroke-miterlimit:4;stroke-dasharray:none;stroke-opacity:1"
         d="m 70.559126,621.3716 -0.783848,26.47123"
         id="path30432-4-6-0-5-3-0-6-3" />
      <path
         style="fill:none;stroke:#43e8ff;stroke-width:4.03489;stroke-linecap:round;stroke-linejoin:miter;stroke-miterlimit:4;stroke-dasharray:none;stroke-opacity:1"
         d="M 110.09495,645.64749 91.77172,664.76815"
         id="path30432-2-5-4-8-6-5-8" />
      <path
         style="fill:none;stroke:#43e8ff;stroke-width:4.03489;stroke-linecap:round;stroke-linejoin:miter;stroke-miterlimit:4;stroke-dasharray:none;stroke-opacity:1"
         d="M 110.61105,664.5311 91.538817,646.15748"
         id="path30432-9-5-1-5-3-7-7-5" />
      <path
         style="fill:none;stroke:#43e8ff;stroke-width:4.03489;stroke-linecap:round;stroke-linejoin:miter;stroke-miterlimit:4;stroke-dasharray:none;stroke-opacity:1"
         d="m 114.88316,654.77998 -26.478328,0.48826"
         id="path30432-6-2-4-8-3-1-2-2" />
      <path
         style="fill:none;stroke:#43e8ff;stroke-width:4.03489;stroke-linecap:round;stroke-linejoin:miter;stroke-miterlimit:4;stroke-dasharray:none;stroke-opacity:1"
         d="m 101.64044,641.92853 -0.78384,26.47123"
         id="path30432-4-6-0-3-3-5-6-9" />
    </g>
  </g>
</svg>
