<?xml version="1.0" encoding="UTF-8" standalone="no"?>
<!-- Created with Inkscape (http://www.inkscape.org/) -->

<svg
   width="150mm"
   height="150mm"
   viewBox="0 0 150 150"
   version="1.1"
   id="svg15091"
   inkscape:version="1.1 (c68e22c387, 2021-05-23)"
   sodipodi:docname="plain-light-lightsnow.svg"
   xmlns:inkscape="http://www.inkscape.org/namespaces/inkscape"
   xmlns:sodipodi="http://sodipodi.sourceforge.net/DTD/sodipodi-0.dtd"
   xmlns:xlink="http://www.w3.org/1999/xlink"
   xmlns="http://www.w3.org/2000/svg"
   xmlns:svg="http://www.w3.org/2000/svg">
  <sodipodi:namedview
     id="namedview15093"
     pagecolor="#ffffff"
     bordercolor="#666666"
     borderopacity="1.0"
     inkscape:pageshadow="2"
     inkscape:pageopacity="0.0"
     inkscape:pagecheckerboard="0"
     inkscape:document-units="mm"
     showgrid="false"
     fit-margin-top="5"
     fit-margin-left="5"
     fit-margin-right="5"
     fit-margin-bottom="5"
     lock-margins="true"
     inkscape:zoom="0.30110831"
     inkscape:cx="-586.16782"
     inkscape:cy="9.9631925"
     inkscape:window-width="1920"
     inkscape:window-height="1047"
     inkscape:window-x="-9"
     inkscape:window-y="-9"
     inkscape:window-maximized="1"
     inkscape:current-layer="g2718" />
  <defs
     id="defs15088">
    <linearGradient
       inkscape:collect="always"
       xlink:href="#Darkercloud"
       id="linearGradient52452"
       gradientUnits="userSpaceOnUse"
       x1="20.263622"
       y1="112.12571"
       x2="59.116428"
       y2="121.51217"
       gradientTransform="matrix(3.7795276,0,0,3.7795276,765.16052,3382.9271)" />
    <linearGradient
       id="Darkercloud"
       inkscape:collect="always">
      <stop
         id="stop938"
         offset="0"
         style="stop-color:#f9f9f9;stop-opacity:1" />
      <stop
         style="stop-color:#ececec;stop-opacity:1"
         offset="1"
         id="stop940" />
    </linearGradient>
  </defs>
  <g
     inkscape:label="Layer 1"
     inkscape:groupmode="layer"
     id="layer1"
     transform="translate(-102.13364,-165.2208)">
    <g
       id="g2718"
       inkscape:label="Plain|Snow"
       transform="translate(220.44768,-269.72599)">
      <g
         id="g3153"
         transform="translate(100.30837,45.667988)"
         inkscape:label="Plain|Light|Lightsnow">
        <path
           id="path884-4-6-2"
           style="fill:url(#linearGradient52452);fill-opacity:1;stroke:#ffffff;stroke-width:22.6772;stroke-linecap:round;stroke-linejoin:round;stroke-miterlimit:4;stroke-dasharray:none;stroke-opacity:1"
           d="m 1115.582,3688.0547 c -6.3546,-0.062 -12.6473,0.3238 -18.8496,1.1953 -5.8775,0.841 -11.6024,2.1475 -17.1094,3.9473 -21.3175,7.0025 -36.8342,20.8078 -46.2265,34.7285 -12.9926,19.2986 -15.0139,36.3524 -14.0293,45.9629 -6.5895,-6.7851 -14.7571,-13.2799 -24.76368,-18.6328 -6.78349,-3.5859 -14.27084,-6.5995 -22.34571,-8.7676 -14.87051,-2.8279 -31.47507,-0.8903 -46.40234,6.9844 -6.12397,3.3519 -11.72884,7.5151 -16.77539,12.3261 -7.16946,6.8349 -12.91024,14.6867 -17.3418,22.7285 -13.00432,23.3682 -16.86298,48.1795 -16.61914,68.959 0.046,10.2735 1.1991,19.6727 3.85156,28.3594 3.39611,11.2219 9.31785,19.5433 15.53321,24.9434 7.95866,6.834 14.83472,8.5835 18.40429,8.4394 22.65115,4.4776 115.4626,7.6815 226.4609,7.4551 113.7309,-0.232 208.3378,-3.9859 227.9532,-8.7168 0.025,0.119 0.062,0.2288 0.1328,0.3144 1.6245,1.9758 19.514,-5.0986 19.8965,-30.6425 0.022,-6.1233 -1.1467,-12.2076 -3.0782,-18.377 -5.3277,-17.8741 -16.9801,-39.7428 -38.7578,-54.7519 -7.0076,-4.6958 -14.6947,-8.4393 -22.8847,-11.2246 -9.2011,-3.1292 -18.5329,-4.8793 -27.502,-5.6016 -18.7261,-1.5444 -36.4905,0.7644 -50.8242,3.5215 -4.7593,0.8827 -9.3742,1.9081 -13.9785,3.4648 1.0499,-4.4654 2.1614,-10.1533 3.3125,-16.9433 -0.2443,-10.3429 -2.404,-23.3319 -8.459,-37.0801 -7.8059,-17.3587 -22.3157,-35.5691 -44.2852,-47.1914 -10.3464,-5.4066 -21.4773,-9.0333 -33.0332,-11.5274 -2.4733,-0.5505 -4.9822,-1.0548 -7.5215,-1.5039 -8.3145,-1.4704 -16.5876,-2.2893 -24.7578,-2.3691 z m -5.0234,19.8555 c 8.4489,-0.068 17.212,0.785 26.2852,2.373 2.2659,0.3966 4.5203,0.8329 6.7578,1.3027 10.4397,2.2702 19.9574,5.0945 28.4257,9.2735 17.9136,8.6983 30.9687,23.0371 38.92,36.959 6.2022,10.5794 9.5444,21.1462 11.3965,30.0527 0.053,8.2749 0.3246,14.977 0.8124,19.793 -9.0048,4.523 -15.3686,10.8095 -19.3242,16.4824 -7.5604,10.8749 -7.3766,18.8126 -5.625,19.4375 1.7516,0.6248 5.1111,-5.6723 13.2852,-12.709 5.1488,-4.4448 12.5737,-9.0898 22.0195,-11.2051 3.9338,-0.9064 8.0828,-1.2976 13.1504,-1.7832 13.8544,-1.231 30.5861,-2.4055 46.5215,-0.5254 7.6576,0.9217 15.4986,2.495 23.0176,5 6.7043,2.2337 12.8601,5.11 18.3535,8.6953 17.22,10.8299 28.376,28.7266 34.9922,43.5821 2.2499,5.2746 3.8583,9.52 4.4863,13.7715 2.0638,12.3263 -3.1503,21.3901 -5.5664,26.2246 -16.941,-4.7953 -113.1324,-8.3031 -229.1387,-8.0664 -111.5676,0.2275 -204.77341,3.8437 -226.79685,8.4472 -2.72567,-2.1743 -6.91396,-5.4852 -10.99609,-10.9629 -3.9757,-5.2505 -7.19802,-12.2682 -8.9336,-21.6113 -1.33688,-7.3003 -1.39264,-15.1182 -0.76367,-24.4609 1.39922,-18.5507 5.81994,-40.4298 17.16406,-59.5625 3.91193,-6.5213 8.57222,-12.8379 14.01367,-18.1289 3.83676,-3.7307 7.95994,-6.8555 12.38086,-9.2227 10.30203,-5.8083 22.33657,-7.6914 33.02149,-6.1582 6.53088,1.4403 12.69348,3.5527 18.37891,6.1328 21.36022,9.557 35.26912,25.6277 43.22262,37.2402 8.1277,11.8669 11.3979,20.0473 13.2305,19.5743 1.8326,-0.4731 2.0683,-9.8246 -4.1191,-24.4903 -3.0013,-7.1136 -7.8425,-15.713 -14.9903,-24.2011 2.2858,-6.802 5.9272,-24.468 21.1504,-42.2989 9.0619,-10.64 22.6978,-20.8609 39.8477,-25.6035 4.4622,-1.2439 9.1693,-2.1146 14.0937,-2.6699 3.7096,-0.4297 7.4858,-0.6507 11.3262,-0.6816 z"
           transform="matrix(0.26458333,0,0,0.26458333,-442.92704,-571.42326)" />
        <path
           style="fill:none;stroke:#43e8ff;stroke-width:2.64499;stroke-linecap:round;stroke-linejoin:miter;stroke-miterlimit:4;stroke-dasharray:none;stroke-opacity:1"
           d="M -186.53819,481.6605 -198.548,494.19635"
           id="path30432-2-5-4-06-7-57" />
        <path
           style="fill:none;stroke:#43e8ff;stroke-width:2.64499;stroke-linecap:round;stroke-linejoin:miter;stroke-miterlimit:4;stroke-dasharray:none;stroke-opacity:1"
           d="m -186.19991,494.04094 -12.50074,-12.04608"
           id="path30432-9-5-1-5-8-7-9" />
        <path
           style="fill:none;stroke:#43e8ff;stroke-width:2.64499;stroke-linecap:round;stroke-linejoin:miter;stroke-miterlimit:4;stroke-dasharray:none;stroke-opacity:1"
           d="m -183.39979,487.64793 -17.35501,0.32011"
           id="path30432-6-2-4-8-17-6-1" />
        <path
           style="fill:none;stroke:#43e8ff;stroke-width:2.64499;stroke-linecap:round;stroke-linejoin:miter;stroke-miterlimit:4;stroke-dasharray:none;stroke-opacity:1"
           d="m -192.07962,479.22229 -0.51377,17.35501"
           id="path30432-4-6-0-3-35-2-4" />
        <path
           style="fill:none;stroke:#43e8ff;stroke-width:2.64499;stroke-linecap:round;stroke-linejoin:miter;stroke-miterlimit:4;stroke-dasharray:none;stroke-opacity:1"
           d="m -161.24884,479.20244 -12.00981,12.53585"
           id="path30432-2-5-4-7-7-5-8" />
        <path
           style="fill:none;stroke:#43e8ff;stroke-width:2.64499;stroke-linecap:round;stroke-linejoin:miter;stroke-miterlimit:4;stroke-dasharray:none;stroke-opacity:1"
           d="M -160.91056,491.58288 -173.4113,479.5368"
           id="path30432-9-5-1-5-1-6-0-9" />
        <path
           style="fill:none;stroke:#43e8ff;stroke-width:2.64499;stroke-linecap:round;stroke-linejoin:miter;stroke-miterlimit:4;stroke-dasharray:none;stroke-opacity:1"
           d="m -158.11044,485.18987 -17.35501,0.32011"
           id="path30432-6-2-4-8-2-5-7-6" />
        <path
           style="fill:none;stroke:#43e8ff;stroke-width:2.64499;stroke-linecap:round;stroke-linejoin:miter;stroke-miterlimit:4;stroke-dasharray:none;stroke-opacity:1"
           d="m -166.79027,476.76423 -0.51377,17.35501"
           id="path30432-4-6-0-3-6-5-9-04" />
        <path
           style="fill:none;stroke:#43e8ff;stroke-width:2.64499;stroke-linecap:round;stroke-linejoin:miter;stroke-miterlimit:4;stroke-dasharray:none;stroke-opacity:1"
           d="m -180.3806,507.16757 -12.00981,12.53585"
           id="path30432-2-5-4-9-2-5-9" />
        <path
           style="fill:none;stroke:#43e8ff;stroke-width:2.64499;stroke-linecap:round;stroke-linejoin:miter;stroke-miterlimit:4;stroke-dasharray:none;stroke-opacity:1"
           d="m -180.04232,519.54801 -12.50074,-12.04607"
           id="path30432-9-5-1-5-5-2-5-0" />
        <path
           style="fill:none;stroke:#43e8ff;stroke-width:2.64499;stroke-linecap:round;stroke-linejoin:miter;stroke-miterlimit:4;stroke-dasharray:none;stroke-opacity:1"
           d="m -177.2422,513.155 -17.35501,0.32011"
           id="path30432-6-2-4-8-1-4-7-0" />
        <path
           style="fill:none;stroke:#43e8ff;stroke-width:2.64499;stroke-linecap:round;stroke-linejoin:miter;stroke-miterlimit:4;stroke-dasharray:none;stroke-opacity:1"
           d="m -185.92203,504.72936 -0.51377,17.35501"
           id="path30432-4-6-0-3-2-6-1-2" />
        <path
           style="fill:none;stroke:#43e8ff;stroke-width:2.64499;stroke-linecap:round;stroke-linejoin:miter;stroke-miterlimit:4;stroke-dasharray:none;stroke-opacity:1"
           d="m -136.41796,486.31083 -12.00981,12.53585"
           id="path30432-2-5-4-6-4-6-6" />
        <path
           style="fill:none;stroke:#43e8ff;stroke-width:2.64499;stroke-linecap:round;stroke-linejoin:miter;stroke-miterlimit:4;stroke-dasharray:none;stroke-opacity:1"
           d="m -136.07968,498.69127 -12.50074,-12.04608"
           id="path30432-9-5-1-5-7-1-4-0" />
        <path
           style="fill:none;stroke:#43e8ff;stroke-width:2.64499;stroke-linecap:round;stroke-linejoin:miter;stroke-miterlimit:4;stroke-dasharray:none;stroke-opacity:1"
           d="m -133.27956,492.29826 -17.35501,0.32011"
           id="path30432-6-2-4-8-8-8-1-4" />
        <path
           style="fill:none;stroke:#43e8ff;stroke-width:2.64499;stroke-linecap:round;stroke-linejoin:miter;stroke-miterlimit:4;stroke-dasharray:none;stroke-opacity:1"
           d="m -141.95939,483.87262 -0.51377,17.35501"
           id="path30432-4-6-0-3-33-8-3-2" />
        <path
           style="fill:none;stroke:#43e8ff;stroke-width:2.64499;stroke-linecap:round;stroke-linejoin:miter;stroke-miterlimit:4;stroke-dasharray:none;stroke-opacity:1"
           d="m -150.22887,506.50799 -12.00981,12.53585"
           id="path30432-2-5-4-0-1-6-3" />
        <path
           style="fill:none;stroke:#43e8ff;stroke-width:2.64499;stroke-linecap:round;stroke-linejoin:miter;stroke-miterlimit:4;stroke-dasharray:none;stroke-opacity:1"
           d="m -149.89059,518.88843 -12.50074,-12.04607"
           id="path30432-9-5-1-5-53-6-4-2" />
        <path
           style="fill:none;stroke:#43e8ff;stroke-width:2.64499;stroke-linecap:round;stroke-linejoin:miter;stroke-miterlimit:4;stroke-dasharray:none;stroke-opacity:1"
           d="m -147.09047,512.49542 -17.35501,0.32011"
           id="path30432-6-2-4-8-4-1-5-5" />
        <path
           style="fill:none;stroke:#43e8ff;stroke-width:2.64499;stroke-linecap:round;stroke-linejoin:miter;stroke-miterlimit:4;stroke-dasharray:none;stroke-opacity:1"
           d="m -155.7703,504.06978 -0.51377,17.35501"
           id="path30432-4-6-0-3-4-5-0-1" />
        <path
           style="fill:none;stroke:#43e8ff;stroke-width:2.64499;stroke-linecap:round;stroke-linejoin:miter;stroke-miterlimit:4;stroke-dasharray:none;stroke-opacity:1"
           d="m -110.82644,478.18065 -12.00981,12.53585"
           id="path30432-2-5-4-3-1-7-6" />
        <path
           style="fill:none;stroke:#43e8ff;stroke-width:2.64499;stroke-linecap:round;stroke-linejoin:miter;stroke-miterlimit:4;stroke-dasharray:none;stroke-opacity:1"
           d="M -110.48816,490.56109 -122.9889,478.51501"
           id="path30432-9-5-1-5-2-3-3-6" />
        <path
           style="fill:none;stroke:#43e8ff;stroke-width:2.64499;stroke-linecap:round;stroke-linejoin:miter;stroke-miterlimit:4;stroke-dasharray:none;stroke-opacity:1"
           d="m -107.68804,484.16808 -17.35501,0.32011"
           id="path30432-6-2-4-8-5-9-1-5" />
        <path
           style="fill:none;stroke:#43e8ff;stroke-width:2.64499;stroke-linecap:round;stroke-linejoin:miter;stroke-miterlimit:4;stroke-dasharray:none;stroke-opacity:1"
           d="m -116.36787,475.74244 -0.51377,17.35501"
           id="path30432-4-6-0-3-9-1-1-4" />
        <path
           style="fill:none;stroke:#43e8ff;stroke-width:2.64499;stroke-linecap:round;stroke-linejoin:miter;stroke-miterlimit:4;stroke-dasharray:none;stroke-opacity:1"
           d="M -85.385147,482.63506 -97.39496,495.17091"
           id="path30432-2-5-4-98-3-4-0" />
        <path
           style="fill:none;stroke:#43e8ff;stroke-width:2.64499;stroke-linecap:round;stroke-linejoin:miter;stroke-miterlimit:4;stroke-dasharray:none;stroke-opacity:1"
           d="M -85.04687,495.0155 -97.547614,482.96942"
           id="path30432-9-5-1-5-15-4-1-2" />
        <path
           style="fill:none;stroke:#43e8ff;stroke-width:2.64499;stroke-linecap:round;stroke-linejoin:miter;stroke-miterlimit:4;stroke-dasharray:none;stroke-opacity:1"
           d="M -82.246751,488.62249 -99.60176,488.9426"
           id="path30432-6-2-4-8-84-5-2-82" />
        <path
           style="fill:none;stroke:#43e8ff;stroke-width:2.64499;stroke-linecap:round;stroke-linejoin:miter;stroke-miterlimit:4;stroke-dasharray:none;stroke-opacity:1"
           d="m -90.926584,480.19685 -0.513768,17.35501"
           id="path30432-4-6-0-3-40-7-4-2" />
        <path
           style="fill:none;stroke:#43e8ff;stroke-width:2.64499;stroke-linecap:round;stroke-linejoin:miter;stroke-miterlimit:4;stroke-dasharray:none;stroke-opacity:1"
           d="m -115.96727,501.56168 -12.00981,12.53585"
           id="path30432-2-5-4-78-1-0-9" />
        <path
           style="fill:none;stroke:#43e8ff;stroke-width:2.64499;stroke-linecap:round;stroke-linejoin:miter;stroke-miterlimit:4;stroke-dasharray:none;stroke-opacity:1"
           d="m -115.62899,513.94212 -12.50074,-12.04607"
           id="path30432-9-5-1-5-19-2-1-9" />
        <path
           style="fill:none;stroke:#43e8ff;stroke-width:2.64499;stroke-linecap:round;stroke-linejoin:miter;stroke-miterlimit:4;stroke-dasharray:none;stroke-opacity:1"
           d="m -112.82887,507.54911 -17.35501,0.32011"
           id="path30432-6-2-4-8-0-5-6-2" />
        <path
           style="fill:none;stroke:#43e8ff;stroke-width:2.64499;stroke-linecap:round;stroke-linejoin:miter;stroke-miterlimit:4;stroke-dasharray:none;stroke-opacity:1"
           d="m -121.5087,499.12347 -0.51377,17.35501"
           id="path30432-4-6-0-3-1-2-5-1" />
        <path
           style="fill:none;stroke:#43e8ff;stroke-width:2.64499;stroke-linecap:round;stroke-linejoin:miter;stroke-miterlimit:4;stroke-dasharray:none;stroke-opacity:1"
           d="m -89.923277,510.94548 -12.009813,12.53585"
           id="path30432-2-5-4-79-3-0-3" />
        <path
           style="fill:none;stroke:#43e8ff;stroke-width:2.64499;stroke-linecap:round;stroke-linejoin:miter;stroke-miterlimit:4;stroke-dasharray:none;stroke-opacity:1"
           d="m -89.585,523.32592 -12.50074,-12.04607"
           id="path30432-9-5-1-5-52-3-7-1" />
        <path
           style="fill:none;stroke:#43e8ff;stroke-width:2.64499;stroke-linecap:round;stroke-linejoin:miter;stroke-miterlimit:4;stroke-dasharray:none;stroke-opacity:1"
           d="m -86.784881,516.93291 -17.355009,0.32011"
           id="path30432-6-2-4-8-6-1-1-8" />
        <path
           style="fill:none;stroke:#43e8ff;stroke-width:2.64499;stroke-linecap:round;stroke-linejoin:miter;stroke-miterlimit:4;stroke-dasharray:none;stroke-opacity:1"
           d="m -95.464714,508.50727 -0.513768,17.35501"
           id="path30432-4-6-0-3-18-6-4-1" />
      </g>
    </g>
  </g>
</svg>
