<?xml version="1.0" encoding="UTF-8" standalone="no"?>
<!-- Created with Inkscape (http://www.inkscape.org/) -->

<svg
   width="200mm"
   height="200mm"
   viewBox="0 0 200 200"
   version="1.1"
   id="svg5"
   inkscape:version="1.1 (c68e22c387, 2021-05-23)"
   sodipodi:docname="portable-roof.svg"
   xmlns:inkscape="http://www.inkscape.org/namespaces/inkscape"
   xmlns:sodipodi="http://sodipodi.sourceforge.net/DTD/sodipodi-0.dtd"
   xmlns="http://www.w3.org/2000/svg"
   xmlns:svg="http://www.w3.org/2000/svg">
  <sodipodi:namedview
     id="namedview7"
     pagecolor="#ffffff"
     bordercolor="#666666"
     borderopacity="1.0"
     inkscape:pageshadow="2"
     inkscape:pageopacity="0.0"
     inkscape:pagecheckerboard="0"
     inkscape:document-units="mm"
     showgrid="false"
     fit-margin-top="5"
     lock-margins="true"
     fit-margin-left="5"
     fit-margin-right="5"
     fit-margin-bottom="5"
     inkscape:zoom="0.60221661"
     inkscape:cx="223.34156"
     inkscape:cy="581.18623"
     inkscape:window-width="1920"
     inkscape:window-height="1047"
     inkscape:window-x="-9"
     inkscape:window-y="-9"
     inkscape:window-maximized="1"
     inkscape:current-layer="layer1" />
  <defs
     id="defs2">
    <inkscape:path-effect
       effect="spiro"
       id="path-effect2599"
       is_visible="true"
       lpeversion="1" />
    <inkscape:path-effect
       effect="spiro"
       id="path-effect2037"
       is_visible="true"
       lpeversion="1" />
    <inkscape:path-effect
       effect="spiro"
       id="path-effect2018"
       is_visible="true"
       lpeversion="1" />
    <inkscape:path-effect
       effect="spiro"
       id="path-effect1999"
       is_visible="true"
       lpeversion="1" />
    <inkscape:path-effect
       effect="spiro"
       id="path-effect1858"
       is_visible="true"
       lpeversion="1" />
    <inkscape:path-effect
       effect="spiro"
       id="path-effect1723"
       is_visible="true"
       lpeversion="1" />
    <inkscape:path-effect
       effect="spiro"
       id="path-effect994"
       is_visible="true"
       lpeversion="1" />
    <inkscape:path-effect
       effect="skeletal"
       id="path-effect889"
       is_visible="true"
       lpeversion="1"
       pattern="M 0,4.9921382 C 0,2.2364779 2.2364779,0 4.9921382,0 c 2.7556604,0 4.9921383,2.2364779 4.9921383,4.9921382 0,2.7556604 -2.2364779,4.9921383 -4.9921383,4.9921383 C 2.2364779,9.9842765 0,7.7477986 0,4.9921382 Z"
       copytype="single_stretched"
       prop_scale="1"
       scale_y_rel="false"
       spacing="0"
       normal_offset="0"
       tang_offset="0"
       prop_units="false"
       vertical_pattern="false"
       hide_knot="false"
       fuse_tolerance="0" />
    <inkscape:path-effect
       effect="skeletal"
       id="path-effect883"
       is_visible="true"
       lpeversion="1"
       pattern="M 0,4.9921382 C 0,2.2364779 2.2364779,0 4.9921382,0 c 2.7556604,0 4.9921383,2.2364779 4.9921383,4.9921382 0,2.7556604 -2.2364779,4.9921383 -4.9921383,4.9921383 C 2.2364779,9.9842765 0,7.7477986 0,4.9921382 Z"
       copytype="single_stretched"
       prop_scale="1"
       scale_y_rel="false"
       spacing="0"
       normal_offset="0"
       tang_offset="0"
       prop_units="false"
       vertical_pattern="false"
       hide_knot="false"
       fuse_tolerance="0" />
    <inkscape:path-effect
       effect="skeletal"
       id="path-effect877"
       is_visible="true"
       lpeversion="1"
       pattern="M 0,4.9921382 C 0,2.2364779 2.2364779,0 4.9921382,0 c 2.7556604,0 4.9921383,2.2364779 4.9921383,4.9921382 0,2.7556604 -2.2364779,4.9921383 -4.9921383,4.9921383 C 2.2364779,9.9842765 0,7.7477986 0,4.9921382 Z"
       copytype="single_stretched"
       prop_scale="1"
       scale_y_rel="false"
       spacing="0"
       normal_offset="0"
       tang_offset="0"
       prop_units="false"
       vertical_pattern="false"
       hide_knot="false"
       fuse_tolerance="0" />
    <inkscape:path-effect
       effect="spiro"
       id="path-effect871"
       is_visible="true"
       lpeversion="1" />
    <inkscape:path-effect
       effect="spiro"
       id="path-effect867"
       is_visible="true"
       lpeversion="1" />
    <inkscape:path-effect
       effect="spiro"
       id="path-effect863"
       is_visible="true"
       lpeversion="1" />
    <clipPath
       clipPathUnits="userSpaceOnUse"
       id="clipPath3210">
      <path
         style="fill:#000000;fill-opacity:1;stroke:#000000;stroke-width:0.264583px;stroke-linecap:butt;stroke-linejoin:miter;stroke-opacity:1"
         d="m 173.55283,139.55997 c 5.11361,-2.3842 11.0906,-2.86032 16.51718,-1.31576 5.42657,1.54456 10.25697,5.09679 13.34862,9.81644 2.12283,3.24067 3.41559,6.93887 4.83284,10.54438 1.88288,4.79008 4.02562,9.50491 5.27219,14.49852 1.78766,7.16117 1.67198,14.67062 0.884,22.00937 -0.78798,7.33875 -2.23408,14.59333 -3.08074,21.92554 -0.78362,6.78628 -1.05509,13.64674 -2.40747,20.34291 -1.35237,6.69617 -3.89259,13.3468 -8.57626,18.31981 -4.18595,4.44455 -9.82665,7.27674 -15.6261,9.18532 -5.79944,1.90857 -11.83618,2.97436 -17.76443,4.43452 -7.38398,1.81871 -14.60401,4.25075 -21.96746,6.15087 -15.65776,4.04044 -32.42441,5.60476 -47.889049,0.87871 -3.461986,-1.058 -6.825694,-2.42096 -10.105027,-3.95415 -7.344689,-3.43387 -14.373735,-7.8049 -19.849444,-13.78425 -5.475709,-5.97934 -9.310931,-13.69996 -9.586947,-21.80303 -0.145175,-4.26194 0.669965,-8.62352 -0.439348,-12.74112 -0.376714,-1.3983 -0.971918,-2.73751 -1.757397,-3.95414 -0.958268,-1.60244 -1.562549,-3.41528 -1.757397,-5.27219 -0.192272,-1.83237 0.0097,-3.67957 0.103352,-5.51961 0.09369,-1.84005 0.07204,-3.72727 -0.542701,-5.46412 -0.437521,-1.23614 -1.158712,-2.34815 -1.757397,-3.51479 -2.151382,-4.19232 -2.689822,-9.05701 -2.384937,-13.75925 0.304885,-4.70223 1.408187,-9.30998 2.384937,-13.91975 5.74862,-27.1306 7.291236,-55.35231 17.134615,-81.279588 1.33592,-3.518788 2.837359,-7.011779 5.013745,-10.082593 2.176385,-3.070814 5.086097,-5.719242 8.606077,-7.052019 3.145054,-1.190818 6.578693,-1.277567 9.923238,-1.628894 1.672272,-0.175664 3.34453,-0.422302 4.954156,-0.908572 1.609625,-0.486271 3.161094,-1.220284 4.453974,-2.295376 1.19959,-0.997517 2.17198,-2.28113 3.51478,-3.075443 1.16156,-0.687101 2.52312,-0.958495 3.86755,-1.076088 1.34443,-0.117594 2.69945,-0.09275 4.04074,-0.24196 2.86122,-0.318283 5.58571,-1.422047 8.1059,-2.813635 2.5202,-1.391589 4.86588,-3.073583 7.27131,-4.655299 9.81297,-6.452632 20.90975,-11.319682 32.60608,-12.381065 11.69634,-1.061382 24.03637,1.990724 32.85694,9.744968 2.29248,2.015336 4.34354,4.342587 5.79698,7.026714 1.45344,2.684127 2.29003,5.742712 2.11131,8.789856 -0.10238,1.745482 -0.57509,3.544686 -1.7574,4.832834 -1.04313,1.136509 -2.54759,1.767448 -4.06978,2.017841 -1.5222,0.250394 -3.07826,0.15188 -4.61581,0.02662 -1.53756,-0.125262 -3.0839,-0.276606 -4.61956,-0.1299 -1.53566,0.146707 -3.08163,0.61516 -4.26881,1.600242 -0.8842,0.733681 -1.52474,1.711669 -2.16422,2.666219 -0.63948,0.95455 -1.30836,1.918926 -2.22927,2.605969 -1.2179,0.908617 -2.7964,1.252487 -4.31258,1.152069 -1.51617,-0.100418 -2.97911,-0.616898 -4.34104,-1.290695 -2.72387,-1.347594 -5.14253,-3.343504 -8.04165,-4.254862 -1.90076,-0.597517 -3.92579,-0.698047 -5.91557,-0.594699 -1.98979,0.103348 -3.96343,0.405175 -5.94686,0.594699 -9.14205,0.873556 -18.34975,-0.645544 -27.52839,-0.340889 -4.58932,0.152327 -9.20054,0.771211 -13.51899,2.332002 -4.31844,1.560791 -8.345844,4.105685 -11.235159,7.674566 -0.997884,1.232586 -1.852799,2.575193 -2.636094,3.954139 -5.650233,9.94692 -7.555833,21.67173 -13.180472,31.63314 -3.706701,6.56468 -8.943734,12.20421 -12.306717,18.95144 -1.681491,3.37361 -2.880651,7.03948 -3.038134,10.80563 -0.157482,3.76615 0.785965,7.64409 3.043075,10.66305 2.501122,3.34534 6.384867,5.39324 10.343072,6.72721 3.958204,1.33398 8.099988,2.0604 12.063734,3.37782 3.554312,1.18134 6.938952,2.8291 10.487155,4.02866 3.54821,1.19956 7.36197,1.94623 11.04095,1.24352 3.18804,-0.60894 6.08323,-2.2659 9.22633,-3.07544 2.15775,-0.55575 4.39719,-0.7033 6.59251,-1.0845 2.19532,-0.38121 4.41496,-1.03057 6.14861,-2.43029 1.49238,-1.20492 2.5329,-2.90219 3.1896,-4.70436 0.6567,-1.80216 0.95137,-3.7154 1.14696,-5.62349 0.39117,-3.81617 0.44131,-7.8192 2.25368,-11.20026 1.42976,-2.66728 3.81746,-4.66927 5.71154,-7.02958 1.77367,-2.21025 3.12329,-4.75955 3.95414,-7.46894"
         id="path3212"
         inkscape:original-d="m 173.55283,139.55997 c 15.27098,0.74909 19.17295,2.18686 29.8658,8.50068 4.02239,2.3751 3.22657,6.36807 4.83284,10.54438 1.8855,4.90229 4.28556,9.23648 5.27219,14.49852 1.90767,10.17424 0.68262,34.06281 -2.19674,43.93491 -3.55191,12.17797 -1.1607,28.83969 -10.98373,38.66272 -8.81039,8.81039 -21.8962,10.67256 -33.39053,13.61984 -5.30913,1.3613 -17.37358,5.20853 -21.96746,6.15087 -6.42632,1.31823 -40.13535,2.76474 -47.889049,0.87871 -3.514561,-0.8549 -6.854872,-2.36686 -10.105027,-3.95415 -11.132331,-5.43671 -24.748726,-24.64939 -29.436391,-35.58728 -1.459926,-3.40649 0.277458,-9.15709 -0.439348,-12.74112 -0.282872,-1.41436 -1.171599,-2.6361 -1.757397,-3.95414 -0.585801,-1.7574 -1.442652,-3.44667 -1.757397,-5.27219 -0.622567,-3.6109 0.449342,-7.42896 -0.439349,-10.98373 -0.317696,-1.27078 -1.397545,-2.25531 -1.757397,-3.51479 -2.345441,-8.20904 0.943854,-19.18431 0,-27.679 C 47.008058,133.10212 44.934648,122.36462 68.53846,91.384612 72.753609,85.85223 76.111896,78.150892 82.158282,74.25 c 8.883274,-5.731145 10.149543,-1.772235 19.331368,-4.832842 1.47689,-0.492297 2.06177,-2.516593 3.51478,-3.075443 2.49433,-0.959355 5.30229,-0.725776 7.90829,-1.318048 5.28839,-1.201907 9.6825,-6.290718 15.37721,-7.468934 5.69494,-1.178264 61.27851,-6.820606 65.46302,-2.636097 5.99707,5.997073 7.90829,5.973099 7.90829,15.81657 0,2.467618 0.25663,3.490153 -1.7574,4.832834 -1.10384,0.735902 -15.25696,2.742462 -17.57396,3.514802 -2.53721,0.84573 -2.54945,4.04282 -4.39349,5.272188 -4.55279,3.035191 -13.28243,-2.11827 -16.69527,-4.393488 -1.8201,-1.213411 -10.07298,0 -11.86243,0 -24.02103,0 -27.90163,-0.783291 -52.282539,9.665679 -0.895186,0.383651 -1.892575,3.104401 -2.636094,3.954139 -11.363309,12.98664 -7.103425,17.95978 -13.180472,31.63314 -6.47686,14.57293 -16.796163,22.44256 -12.301776,40.42012 1.101132,4.40452 20.761568,9.45379 22.406806,10.10503 7.743446,3.06511 13.270375,5.8227 21.528105,5.27218 7.74113,-0.51607 1.20412,0.13344 9.22633,-3.07544 3.93524,-1.5741 8.78254,-2.52515 12.74112,-3.51479 2.93874,-0.73469 5.13979,-18.14373 6.59024,-21.52811 1.31257,-3.06267 3.9765,-4.42703 5.71154,-7.02958 1.65169,-2.47755 1.52182,-5.84739 3.95414,-7.46894"
         inkscape:path-effect="#path-effect2599"
         sodipodi:nodetypes="cssssssssssscsssssssssssssssssscssssssssc" />
    </clipPath>
  </defs>
  <g
     inkscape:label="Layer 1"
     inkscape:groupmode="layer"
     id="layer1"
     transform="translate(-10.331359,-65.853179)">
    <g
       id="g3463"
       transform="translate(-62.993753,11.01176)">
      <g
         id="g2717"
         clip-path="url(#clipPath3210)">
        <path
           style="fill:none;stroke:#000000;stroke-width:8;stroke-linecap:round;stroke-linejoin:miter;stroke-miterlimit:4;stroke-dasharray:none;stroke-opacity:1"
           d="m 172.76003,76.171226 0.30531,132.931454"
           id="path924"
           sodipodi:nodetypes="cc" />
        <path
           style="fill:none;stroke:#000000;stroke-width:8;stroke-linecap:round;stroke-linejoin:miter;stroke-miterlimit:4;stroke-dasharray:none;stroke-opacity:1"
           d="m 173.06534,209.10268 c 0.54795,5.23944 -0.85425,10.66037 -3.87401,14.97697 -3.01976,4.3166 -7.63146,7.49226 -12.74125,8.77373 -5.10978,1.28147 -10.67428,0.65787 -15.37365,-1.72287 -4.69937,-2.38074 -8.49374,-6.49843 -10.4831,-11.37639 -1.35166,-3.3143 -1.882,-6.96003 -1.53064,-10.52207"
           id="path992"
           sodipodi:nodetypes="csc"
           inkscape:original-d="m 173.06534,209.10268 c -14.15704,3.55089 -28.31438,7.10135 -42.47201,10.65144 -14.15764,3.55006 -1.30474,-6.93908 -1.53064,-10.52207"
           inkscape:path-effect="#path-effect994" />
      </g>
      <g
         id="g2562"
         transform="translate(0.989474,13.89006)">
        <path
           style="fill:none;stroke:#000000;stroke-width:8;stroke-linecap:round;stroke-linejoin:miter;stroke-miterlimit:4;stroke-dasharray:none;stroke-opacity:1"
           d="m 82.926206,126.2623 c 7.623596,-16.47358 19.935084,-30.746175 35.111644,-40.704601 15.17655,-9.958425 33.17032,-15.571274 51.31716,-16.007518 18.14684,-0.436244 36.38952,4.305493 52.02707,13.523157 15.63754,9.217665 28.62063,22.882182 37.027,38.970412 1.20528,2.30668 2.31846,4.66148 3.33599,7.05691"
           id="path1721"
           inkscape:path-effect="#path-effect1723"
           inkscape:original-d="m 82.926206,126.2623 c 58.494554,-1.40593 116.988854,-2.81211 175.482874,-4.21855 58.49402,-1.40643 2.26041,5.84923 3.33599,7.05691"
           sodipodi:nodetypes="csc" />
        <path
           style="fill:none;stroke:#000000;stroke-width:8;stroke-linecap:round;stroke-linejoin:miter;stroke-miterlimit:4;stroke-dasharray:none;stroke-opacity:1"
           d="m 82.926205,126.2623 c 6.547703,-4.15994 14.305312,-6.39008 22.062585,-6.34248 7.75727,0.0476 15.48693,2.37275 21.9831,6.61272 0.2211,0.14431 0.44079,0.29077 0.65903,0.43935"
           id="path1856"
           inkscape:path-effect="#path-effect1858"
           inkscape:original-d="m 82.926205,126.2623 c 14.68216,0.0904 29.364055,0.18043 44.045685,0.27024 14.68163,0.0898 0.43961,0.29317 0.65903,0.43935" />
        <path
           style="fill:none;stroke:#000000;stroke-width:8;stroke-linecap:round;stroke-linejoin:miter;stroke-miterlimit:4;stroke-dasharray:none;stroke-opacity:1"
           d="m 127.63092,126.97189 c 6.5477,-4.15994 14.30531,-6.39008 22.06259,-6.34248 7.75727,0.0476 15.48693,2.37275 21.9831,6.61272 0.2211,0.14431 0.44079,0.29077 0.65903,0.43935"
           id="path1856-9"
           inkscape:path-effect="#path-effect1999"
           inkscape:original-d="m 127.63092,126.97189 c 14.68216,0.0904 29.36406,0.18043 44.04569,0.27024 14.68163,0.0898 0.43961,0.29317 0.65903,0.43935" />
        <path
           style="fill:none;stroke:#000000;stroke-width:8;stroke-linecap:round;stroke-linejoin:miter;stroke-miterlimit:4;stroke-dasharray:none;stroke-opacity:1"
           d="m 172.33564,127.68148 c 6.5477,-4.15994 14.30531,-6.39008 22.06259,-6.34248 7.75727,0.0476 15.48693,2.37275 21.9831,6.61272 0.2211,0.14431 0.44079,0.29077 0.65903,0.43935"
           id="path1856-6"
           inkscape:path-effect="#path-effect2018"
           inkscape:original-d="m 172.33564,127.68148 c 14.68216,0.0904 29.36406,0.18043 44.04569,0.27024 14.68163,0.0898 0.43961,0.29317 0.65903,0.43935" />
        <path
           style="fill:none;stroke:#000000;stroke-width:8;stroke-linecap:round;stroke-linejoin:miter;stroke-miterlimit:4;stroke-dasharray:none;stroke-opacity:1"
           d="m 217.04036,128.39107 c 6.5477,-4.15994 14.30531,-6.39008 22.06258,-6.34248 7.75728,0.0476 15.48693,2.37275 21.9831,6.61272 0.2211,0.14431 0.44079,0.29077 0.65903,0.43935"
           id="path1856-2"
           inkscape:path-effect="#path-effect2037"
           inkscape:original-d="m 217.04036,128.39107 c 14.68215,0.0904 29.36405,0.18043 44.04568,0.27024 14.68163,0.0898 0.43961,0.29317 0.65903,0.43935" />
      </g>
    </g>
  </g>
</svg>
